<?xml version="1.0" encoding="utf-8"?>
<!-- Generator: Adobe Illustrator 25.2.1, SVG Export Plug-In . SVG Version: 6.00 Build 0)  -->
<svg version="1.1" id="Layer_1" xmlns="http://www.w3.org/2000/svg" xmlns:xlink="http://www.w3.org/1999/xlink" x="0px" y="0px"
	 viewBox="0 0 785.22 134.32" style="enable-background:new 0 0 785.22 134.32;" xml:space="preserve">
<style type="text/css">
	.st0{fill-rule:evenodd;clip-rule:evenodd;fill:#FDB61A;}
	.st1{fill:#FBEFDA;}
	.st2{fill:#FDB61A;}
</style>
<g>
	<path class="st0" d="M59.6,52.64c-2.31-1.69-5.1-2.59-7.97-2.59H34.42c-3.17,0-5.74,2.59-5.74,5.78c0,3.19,2.57,5.78,5.74,5.78
		h13.39c1.06,0,1.91,0.86,1.91,1.93s-0.85,1.93-1.91,1.93c-7.39,0-13.39,6.03-13.39,13.48c0,1.06-0.85,1.93-1.91,1.93
		c-1.06,0-1.91-0.87-1.91-1.92c0,0,0,0,0,0c-0.01-4.4,1.66-8.64,4.67-11.85c0.36-0.39,0.34-1-0.06-1.37
		c-0.17-0.16-0.4-0.25-0.64-0.26h-0.15c-3.85-0.01-7.31-2.32-8.8-5.88c-0.25,0-0.5,0.1-0.76,0.1c-5.3-0.02-9.57-4.33-9.56-9.62V38.5
		c0-1.06,0.85-1.93,1.91-1.93c1.05,0,1.91,0.86,1.91,1.93v11.55c0,1.79,0.82,3.49,2.24,4.58c0.71,0.55,1.54,0.92,2.43,1.08
		c0.53,0.09,1.03-0.26,1.12-0.79c0-0.02,0.01-0.04,0.01-0.06c0.33-3.24,2.27-6.1,5.17-7.59c0.32-0.17,0.52-0.5,0.52-0.86V38.5
		c0-1.06,0.85-1.93,1.91-1.93c1.06,0,1.91,0.86,1.91,1.93v6.73c0,0.53,0.43,0.96,0.96,0.96h7.65c0.53,0,0.96-0.43,0.96-0.96v-6.97
		c0-1.06,0.85-1.93,1.91-1.93c1.05,0,1.91,0.86,1.91,1.93v6.97c0,0.53,0.43,0.96,0.96,0.96h2.86c4.36,0,8.57,1.65,11.78,4.62
		c0.28,0.26,0.68,0.33,1.03,0.17c0.35-0.15,0.57-0.5,0.57-0.88V9.63c0-5.31-4.28-9.63-9.56-9.63c-5.3,0.02-9.58,4.33-9.56,9.63v19.3
		c-4.09-3.19-9.99-2.45-13.17,1.63c-0.07,0.1-0.15,0.19-0.22,0.29c-3.03-4.21-8.89-5.17-13.1-2.14c-0.1,0.07-0.19,0.14-0.29,0.21
		v-11.6c0-5.31-4.28-9.63-9.56-9.63C4.26,7.72-0.02,12.03,0,17.32c0,0,0,0,0,0v42.35C0.02,77.74,14.56,92.38,32.51,92.4
		c18.87,0,32.41-16.07,32.41-30.11C64.75,58.41,62.78,54.84,59.6,52.64L59.6,52.64z"/>
	<g>
		<g>
			<path class="st1" d="M246.45,14.13c-3.83-3.85-8.38-6.85-13.6-8.92c-5.15-2.04-10.87-3.09-17.1-3.09
				c-6.37,0-12.2,1.05-17.45,3.08c-5.39,2.09-10.05,5.13-13.92,9.05c-3.87,3.92-6.88,8.63-8.96,14.05
				c-2.05,5.33-3.1,11.26-3.1,17.74c0,6.2,1.02,11.98,3.01,17.25c2.01,5.31,4.93,9.98,8.72,13.9c3.78,3.91,8.31,6.98,13.57,9.11
				c5.15,2.09,10.91,3.18,17.25,3.18c6.42,0,12.3-1.1,17.58-3.24c5.33-2.15,9.97-5.26,13.83-9.24c3.86-3.97,6.87-8.72,8.96-14.16
				c2.05-5.35,3.12-11.25,3.12-17.63c0-6.32-1.05-12.12-3.07-17.33C253.24,22.58,250.27,17.97,246.45,14.13z M237.72,60.57
				c-2.05,4.44-4.88,8.48-8.58,11c-3.85,2.63-8.43,4-13.56,4c-5.45,0-10.09-1.33-13.93-3.89c-3.83-2.55-6.85-6.69-8.86-11.27
				c-1.9-4.31-2.87-9.33-2.87-14.99c0-5.56,1-10.52,2.96-14.79c2.03-4.44,4.94-8.59,8.68-11.12c3.8-2.58,8.37-3.93,13.61-3.93
				c5.45,0,10.16,1.34,14.04,3.96c3.77,2.53,6.68,6.72,8.66,11.27c1.88,4.27,2.84,9.27,2.84,14.95
				C240.72,51.37,239.69,56.32,237.72,60.57z"/>
			<path class="st1" d="M334.87,62.68c-1.59,2.75-9.43,8.67-12.53,9.84c-3.15,1.19-6.74,1.87-10.83,1.98
				c-0.77,0.02-1.55,0.02-2.33-0.01c-4.2-0.15-7.98-1.16-11.35-2.95c-4.15-2.21-7.42-5.55-9.81-9.86
				c-2.34-4.21-3.59-9.21-3.74-14.86c-0.02-0.9-0.02-1.79,0.01-2.69c0.17-4.64,1.13-8.77,2.84-12.36c2.1-4.45,5.11-7.97,8.95-10.49
				c3.82-2.5,8.26-3.93,13.26-4.19c1.13-0.06,2.25-0.07,3.38-0.02c2.66,0.11,5.19,0.49,7.55,1.17c3.15,0.91,6.05,2.26,8.62,4.06
				c2.4,1.68,3.53,3.65,5.25,5.93c0.03,0.03,0.17,0,0.2,0.03V8.36c-3.27-1.81-6.64-3.23-10.2-4.21c-3.86-1.06-8.29-1.57-13.43-1.57
				c-6.48,0-12.46,1.02-17.86,3c-5.52,2.02-10.31,4.99-14.3,8.85c-3.99,3.86-7.09,8.5-9.22,13.86c-2.1,5.28-3.19,11.21-3.19,17.73
				c0,6.27,1.06,12.07,3.11,17.28c2.06,5.22,5.03,9.8,8.87,13.64c3.84,3.86,8.45,6.87,13.78,8.93c5.24,2.04,11.05,3.1,17.38,3.1
				c5.55,0,10.48-0.67,14.64-1.86c4.17-1.18,7.95-2.8,11.18-4.69V62.71C335.13,62.71,334.9,62.65,334.87,62.68z"/>
			<path class="st1" d="M160,72.89l-24.08-32.23l19.54-23.03c4.1-5.17,10.35-10.47,15.35-12.85V4.55h-24.75
				c0.12,2.26-0.28,4.24-4.28,8.68L120.7,35.3V19.48c0-6.9-0.54-12.67,2.2-14.69V4.55h-21.3v0.24c3.09,2.02,2.79,7.67,2.79,17.07
				v47.49c0,9.76,0.18,15.59-2.79,17.62v0.24h21.3v-0.24c-2.74-2.02-2.2-7.74-2.2-20.35V47.4l24.04,30.76
				c2.74,4.05,4.54,6.18,4.67,9.04h25.71v-0.24C168.71,84.56,164.46,78.7,160,72.89z"/>
			<path class="st1" d="M346.67,22.47l0.24,0.12c2.7-4.7,6.23-3.89,13.28-3.89h11.87v49.93c0,9.99-0.17,16.34-3.58,18.34v0.24h23.45
				v-0.24c-3.88-2-3.58-8.23-3.58-18.34V18.7h5.75c7.05,0,16.64-0.81,19.34,3.89l0.23-0.12V4.55h-67.01V22.47z"/>
			<g>
				<path class="st1" d="M122.85,133.49v-19.51l-8.42,15.01h-1.98l-8.46-15.01v19.51h-3.24v-25.56h3.42l9.25,16.6l9.29-16.6h3.38
					v25.56H122.85z"/>
				<path class="st1" d="M139.59,133.85c-1.42,0-2.7-0.26-3.85-0.77s-2.15-1.21-2.99-2.11s-1.49-1.92-1.94-3.09
					c-0.46-1.17-0.68-2.39-0.68-3.68c0-1.31,0.23-2.55,0.68-3.72c0.46-1.17,1.1-2.2,1.94-3.09c0.84-0.89,1.84-1.6,3.01-2.11
					c1.16-0.51,2.45-0.77,3.87-0.77c1.39,0,2.66,0.26,3.82,0.77c1.15,0.51,2.15,1.22,3.01,2.11c0.85,0.89,1.51,1.92,1.96,3.09
					c0.46,1.17,0.68,2.41,0.68,3.72c0,1.29-0.23,2.51-0.68,3.68c-0.46,1.17-1.1,2.2-1.94,3.09s-1.84,1.6-3.01,2.11
					S141.01,133.85,139.59,133.85z M133.36,124.23c0,1.28,0.28,2.45,0.85,3.49c0.56,1.04,1.31,1.87,2.25,2.48
					c0.94,0.61,1.98,0.91,3.13,0.91c1.15,0,2.2-0.31,3.15-0.93c0.95-0.62,1.7-1.45,2.27-2.51c0.56-1.06,0.85-2.23,0.85-3.51
					c0-1.28-0.28-2.45-0.85-3.49c-0.56-1.04-1.32-1.88-2.27-2.49c-0.95-0.62-2-0.93-3.15-0.93c-1.15,0-2.2,0.32-3.13,0.94
					c-0.94,0.63-1.69,1.47-2.25,2.51C133.64,121.75,133.36,122.93,133.36,124.23z"/>
				<path class="st1" d="M161.26,133.85c-1.42,0-2.71-0.26-3.87-0.77s-2.17-1.22-3.02-2.13c-0.85-0.91-1.51-1.94-1.98-3.11
					c-0.47-1.17-0.7-2.41-0.7-3.72c0-1.76,0.4-3.37,1.19-4.82c0.79-1.45,1.91-2.61,3.35-3.48c1.44-0.87,3.11-1.3,5-1.3
					c1.85,0,3.46,0.41,4.84,1.24c1.38,0.83,2.41,1.94,3.08,3.33l-3.1,0.97c-0.48-0.89-1.15-1.58-2.02-2.07
					c-0.86-0.49-1.82-0.74-2.88-0.74c-1.15,0-2.2,0.3-3.15,0.89c-0.95,0.59-1.7,1.41-2.25,2.44c-0.55,1.03-0.83,2.21-0.83,3.54
					c0,1.31,0.28,2.49,0.85,3.54c0.56,1.06,1.32,1.89,2.27,2.51c0.95,0.62,2,0.93,3.15,0.93c0.74,0,1.46-0.13,2.14-0.4
					c0.68-0.26,1.28-0.62,1.8-1.06c0.52-0.44,0.87-0.93,1.06-1.46l3.1,0.94c-0.38,0.91-0.97,1.72-1.75,2.43
					c-0.78,0.71-1.71,1.27-2.77,1.67C163.7,133.64,162.53,133.85,161.26,133.85z"/>
				<path class="st1" d="M172.85,133.49V114.8h3.17v7.67h2.09l5.9-7.67h3.6l-7.02,9.04l7.85,9.65h-3.67l-6.66-8.1h-2.09v8.1H172.85z
					"/>
				<path class="st1" d="M191.54,133.49V114.8h9.72c1.13,0,2.06,0.22,2.81,0.66s1.3,1.01,1.67,1.7c0.37,0.69,0.56,1.43,0.56,2.21
					c0,1-0.24,1.9-0.72,2.7c-0.48,0.8-1.18,1.4-2.09,1.8c1.08,0.31,1.96,0.87,2.63,1.67s1.01,1.79,1.01,2.96
					c0,1.05-0.25,1.95-0.76,2.69c-0.5,0.74-1.21,1.31-2.12,1.7s-1.97,0.59-3.17,0.59H191.54z M194.56,123.01h5.87
					c0.58,0,1.08-0.15,1.51-0.44c0.43-0.3,0.77-0.68,1.01-1.16c0.24-0.47,0.36-0.97,0.36-1.5c0-0.78-0.26-1.46-0.77-2.03
					c-0.52-0.57-1.18-0.85-2-0.85h-5.98V123.01z M194.56,131.26h6.44c0.58,0,1.1-0.14,1.57-0.43c0.47-0.29,0.83-0.67,1.1-1.15
					c0.26-0.48,0.4-0.98,0.4-1.5c0-0.57-0.13-1.09-0.38-1.56c-0.25-0.46-0.6-0.83-1.04-1.11c-0.44-0.27-0.95-0.41-1.53-0.41h-6.55
					V131.26z"/>
				<path class="st1" d="M209.68,128.09c0-1.19,0.34-2.22,1.03-3.09c0.68-0.87,1.62-1.54,2.83-2.02c1.2-0.48,2.59-0.72,4.18-0.72
					c0.84,0,1.73,0.07,2.66,0.2c0.94,0.13,1.76,0.33,2.48,0.59v-1.36c0-1.42-0.43-2.54-1.3-3.36c-0.86-0.82-2.09-1.22-3.67-1.22
					c-1.03,0-2.02,0.19-2.97,0.56c-0.95,0.37-1.95,0.91-3.01,1.6l-1.15-2.23c1.22-0.84,2.45-1.47,3.67-1.89s2.5-0.63,3.82-0.63
					c2.4,0,4.29,0.66,5.69,1.98c1.39,1.32,2.09,3.16,2.09,5.51v7.89c0,0.38,0.08,0.66,0.23,0.84c0.16,0.18,0.41,0.28,0.77,0.3v2.45
					c-0.31,0.05-0.58,0.08-0.81,0.11c-0.23,0.02-0.41,0.04-0.56,0.04c-0.75,0-1.3-0.2-1.67-0.61s-0.58-0.84-0.63-1.3l-0.07-1.19
					c-0.82,1.06-1.88,1.87-3.2,2.45c-1.32,0.58-2.63,0.86-3.92,0.86c-1.25,0-2.36-0.26-3.35-0.77s-1.75-1.2-2.3-2.08
					C209.96,130.13,209.68,129.16,209.68,128.09z M221.92,129.4c0.29-0.33,0.52-0.67,0.68-1.02s0.25-0.64,0.25-0.87v-2.32
					c-0.74-0.28-1.52-0.5-2.34-0.66c-0.82-0.15-1.62-0.23-2.41-0.23c-1.61,0-2.91,0.31-3.91,0.94s-1.49,1.49-1.49,2.58
					c0,0.59,0.16,1.17,0.49,1.73c0.32,0.56,0.8,1.02,1.44,1.37c0.64,0.36,1.42,0.54,2.36,0.54c0.98,0,1.92-0.2,2.81-0.59
					C220.68,130.49,221.39,130,221.92,129.4z"/>
			</g>
			<g>
				<path class="st1" d="M685.74,72.9l-24.08-32.23l19.54-23.03c4.1-5.17,10.35-10.47,15.35-12.84V4.56h-24.75
					c0.12,2.26-0.28,4.24-4.28,8.68l-21.07,22.06V19.49c0-6.9-0.54-12.67,2.2-14.69V4.56h-21.3V4.8c3.09,2.02,2.79,7.67,2.79,17.07
					v47.49c0,9.76,0.18,15.59-2.79,17.62v0.24h21.3v-0.24c-2.74-2.02-2.2-7.74-2.2-20.35V47.4l24.04,30.76
					c2.74,4.05,4.54,6.18,4.67,9.04h25.71v-0.24C694.45,84.57,690.2,78.71,685.74,72.9z"/>
				<path class="st1" d="M782.44,69.21V0.14L725.33,54.9L725.5,20c0-7.51-0.18-13.33,2.55-15.35V4.41h-21.74v0.24
					c3.09,2.02,2.79,7.72,2.79,17.58v69.39l56.76-54.76l-0.27,32.34c0,9.75,0.18,15.57-2.79,17.59v0.24h22.41v-0.24
					C782.14,84.77,782.44,79.07,782.44,69.21z"/>
				<path class="st1" d="M475.13,4.56h-3.2h-3.41h-10.86c-6.46,0-11.98,1.1-16.59,3.31c-4.6,2.2-8.13,5.27-10.57,9.21
					c-2.44,3.94-3.66,8.54-3.66,13.81c0,5.2,1.22,9.78,3.66,13.76c2.44,3.98,5.96,7.07,10.57,9.27c0.97,0.46,1.99,0.87,3.04,1.23
					l-13.44,17.98c-4.39,5.72-8.57,11.48-14.88,13.85v0.23h25.3c0.13-2.82,1.9-4.92,4.59-8.9l16.48-21.09h6.35h0.82v9.74
					c0,12.41,0.53,18.03-2.16,20.02v0.23h20.95v-0.23c-2.93-1.99-2.75-7.73-2.75-17.33V57.22h0.02V25.54h0v-2.7
					c0-0.43,0-0.85,0-1.27v-5.33c0.07-5.68,0.58-9.46,3.45-11.43V4.56h-3.45H475.13z M445.97,24.69c1.18-1.85,2.87-3.27,5.08-4.25
					c2.2-0.98,4.76-1.48,7.67-1.48h10.76v24.8h-10.76c-2.91,0-5.47-0.49-7.67-1.48c-2.21-0.98-3.9-2.4-5.08-4.25
					c-1.18-1.85-1.77-4.07-1.77-6.67C444.2,28.76,444.79,26.54,445.97,24.69z"/>
				<path class="st1" d="M612.81,86.94c-2.37-1.61-2.74-5.64-2.79-12.13V11.61c0.13-3.19,0.61-5.64,2.2-6.82V4.56h-21.3V4.8
					c1.56,1.02,2.25,2.98,2.55,5.86v61.32h-27.85V15.24c0.07-5.49,0.5-8.97,2.78-10.46V4.54h-0.61h-20.69h-0.61v0.24
					c1.89,1.24,2.51,3.86,2.71,7.85v59.34h-27.99v-0.26c0-0.4,0.01-0.79,0.01-1.21h-0.01V12.26c0.09-3.51,0.52-6.21,2.22-7.47V4.56
					h-21.3V4.8c1.79,1.17,2.44,3.56,2.67,7.17v67.11c-0.23,4.04-0.87,6.67-2.67,7.89v0.24h21.3v0h86.58v-0.03h2.79V86.94z"/>
			</g>
		</g>
	</g>
	<g>
		<path class="st2" d="M247.38,133.49h-5.36l3.74-26.46l10.55,16.27l10.55-16.27l3.74,26.46h-5.36l-1.62-14.15l-7.31,11.81
			L249,119.34L247.38,133.49z"/>
		<path class="st2" d="M279.6,108.29v25.2h-4.97v-25.2H279.6z M277.95,108.29h12.71v4.36h-12.71V108.29z M277.95,117.97h11.99v4.28
			h-11.99V117.97z M277.95,129.13h12.71v4.36h-12.71V129.13z"/>
		<path class="st2" d="M300.7,108.29v25.2h-4.97v-25.2H300.7z M299.04,108.29h12.71v4.36h-12.71V108.29z M299.04,117.97h11.99v4.28
			h-11.99V117.97z M299.04,129.13h12.71v4.36h-12.71V129.13z"/>
		<path class="st2" d="M314.31,108.29h18.72v4.64h-6.8v20.56h-5.15v-20.56h-6.77V108.29z"/>
		<path class="st2" d="M351.71,108.29v16.6c0,1.44,0.38,2.6,1.13,3.47c0.76,0.88,1.88,1.31,3.37,1.31c1.49,0,2.61-0.44,3.37-1.31
			c0.76-0.88,1.13-2.03,1.13-3.47v-16.6h5.15v16.92c0,1.49-0.24,2.8-0.72,3.92c-0.48,1.13-1.16,2.08-2.03,2.84s-1.9,1.35-3.08,1.75
			c-1.18,0.4-2.45,0.59-3.82,0.59c-1.39,0-2.68-0.2-3.85-0.59c-1.18-0.4-2.2-0.98-3.06-1.75s-1.54-1.72-2.02-2.84
			c-0.48-1.13-0.72-2.44-0.72-3.92v-16.92H351.71z"/>
		<path class="st2" d="M376.26,108.29v25.2h-5.15v-25.2H376.26z M374.25,108.29h5c1.99,0,3.69,0.32,5.09,0.97
			c1.4,0.65,2.48,1.57,3.22,2.77c0.74,1.2,1.12,2.63,1.12,4.28c0,1.63-0.37,3.05-1.12,4.27c-0.75,1.21-1.82,2.14-3.22,2.79
			c-1.4,0.65-3.1,0.97-5.09,0.97h-5v-4.36h5c1.37,0,2.45-0.31,3.24-0.94s1.19-1.54,1.19-2.74c0-1.22-0.4-2.14-1.19-2.75
			c-0.79-0.61-1.87-0.92-3.24-0.92h-5V108.29z"/>
	</g>
</g>
</svg>
