<?xml version="1.0" encoding="utf-8"?>
<!-- Generator: Adobe Illustrator 25.2.1, SVG Export Plug-In . SVG Version: 6.00 Build 0)  -->
<svg version="1.1" id="Layer_1" xmlns="http://www.w3.org/2000/svg" xmlns:xlink="http://www.w3.org/1999/xlink" x="0px" y="0px"
	 viewBox="0 0 257.68 51.9" style="enable-background:new 0 0 257.68 51.9;" xml:space="preserve">
<style type="text/css">
	.st0{fill:#F7EFED;}
</style>
<g>
	<g>
		<path class="st0" d="M7.92,28.11v22.32c0,0.36-0.36,0.72-0.72,0.72H0.72C0.36,51.15,0,50.79,0,50.43V1.47
			c0-0.36,0.36-0.72,0.72-0.72H7.2c0.36,0,0.72,0.36,0.72,0.72v19.44h2.16c0.36,0,0.72-0.36,0.72-0.72V1.47
			c0-0.36,0.36-0.72,0.72-0.72H18c0.36,0,0.72,0.36,0.72,0.72v19.08c0,2.16-1.44,3.6-3.6,3.6v0.36c2.16,0,3.6,1.44,3.6,3.6v22.32
			c0,0.36-0.36,0.72-0.72,0.72h-6.48c-0.36,0-0.72-0.36-0.72-0.72v-21.6c0-0.36-0.36-0.72-0.72-0.72H7.92z"/>
		<path class="st0" d="M39.6,0.75c2.16,0,3.6,1.44,3.6,3.6v43.2c0,2.16-1.44,3.6-3.6,3.6H28.08c-2.16,0-3.6-1.44-3.6-3.6V4.35
			c0-2.16,1.44-3.6,3.6-3.6H39.6z M35.28,8.67c0-0.36-0.36-0.72-0.72-0.72h-1.44c-0.36,0-0.72,0.36-0.72,0.72v34.56
			c0,0.36,0.36,0.72,0.72,0.72h1.44c0.36,0,0.72-0.36,0.72-0.72V8.67z"/>
		<path class="st0" d="M48.24,4.35c0-2.16,1.44-3.6,3.6-3.6h11.52c2.16,0,3.6,1.44,3.6,3.6v13.68c0,0.36-0.36,0.72-0.72,0.72h-6.48
			c-0.36,0-0.72-0.36-0.72-0.72V8.67c0-0.36-0.36-0.72-0.72-0.72h-1.44c-0.36,0-0.72,0.36-0.72,0.72v8.28l9.72,12.6
			c0.5,0.72,1.08,1.44,1.08,2.88v15.12c0,2.16-1.44,3.6-3.6,3.6H51.84c-2.16,0-3.6-1.44-3.6-3.6V33.87c0-0.36,0.36-0.72,0.72-0.72
			h6.48c0.36,0,0.72,0.36,0.72,0.72v9.36c0,0.36,0.36,0.72,0.72,0.72h1.44c0.36,0,0.72-0.36,0.72-0.72v-9.72l-9.72-12.6
			c-0.5-0.72-1.08-1.44-1.08-2.88V4.35z"/>
		<path class="st0" d="M87.84,7.23c0,0.36-0.36,0.72-0.72,0.72H82.8v42.48c0,0.36-0.36,0.72-0.72,0.72H75.6
			c-0.36,0-0.72-0.36-0.72-0.72V7.95h-4.32c-0.36,0-0.72-0.36-0.72-0.72V1.47c0-0.36,0.36-0.72,0.72-0.72h16.56
			c0.36,0,0.72,0.36,0.72,0.72V7.23z"/>
		<path class="st0" d="M99.36,50.43c0,0.36-0.36,0.72-0.72,0.72h-6.48c-0.36,0-0.72-0.36-0.72-0.72V1.47c0-0.36,0.36-0.72,0.72-0.72
			h6.48c0.36,0,0.72,0.36,0.72,0.72V50.43z"/>
		<path class="st0" d="M115.92,18.03V8.67c0-0.36-0.36-0.72-0.72-0.72h-1.44c-0.36,0-0.72,0.36-0.72,0.72v34.56
			c0,0.36,0.36,0.72,0.72,0.72h1.44c0.36,0,0.72-0.36,0.72-0.72v-9.36c0-0.36,0.36-0.72,0.72-0.72h6.48c0.36,0,0.72,0.36,0.72,0.72
			v13.68c0,2.16-1.44,3.6-3.6,3.6h-11.52c-2.16,0-3.6-1.44-3.6-3.6V4.35c0-2.16,1.44-3.6,3.6-3.6h11.52c2.16,0,3.6,1.44,3.6,3.6
			v13.68c0,0.36-0.36,0.72-0.72,0.72h-6.48C116.28,18.75,115.92,18.39,115.92,18.03z"/>
		<path class="st0" d="M144,0.75c2.16,0,3.6,1.44,3.6,3.6v43.2c0,2.16-1.44,3.6-3.6,3.6h-11.52c-2.16,0-3.6-1.44-3.6-3.6V4.35
			c0-2.16,1.44-3.6,3.6-3.6H144z M139.68,8.67c0-0.36-0.36-0.72-0.72-0.72h-1.44c-0.36,0-0.72,0.36-0.72,0.72v34.56
			c0,0.36,0.36,0.72,0.72,0.72h1.44c0.36,0,0.72-0.36,0.72-0.72V8.67z"/>
		<path class="st0" d="M164.16,35.31l-2.88-7.2v22.32c0,0.36-0.36,0.72-0.72,0.72h-6.48c-0.36,0-0.72-0.36-0.72-0.72V1.47
			c0-0.36,0.36-0.72,0.72-0.72h6.48c0.36,0,0.72,0.36,0.72,0.72v12.24l2.88,7.2V1.47c0-0.36,0.36-0.72,0.72-0.72h6.48
			c0.36,0,0.72,0.36,0.72,0.72v48.96c0,0.36-0.36,0.72-0.72,0.72h-6.48c-0.36,0-0.72-0.36-0.72-0.72V35.31z"/>
	</g>
	<g>
		<path class="st0" d="M204.37,51.9h-6.48c-0.77,0-1.47-0.7-1.47-1.47V29.15l-1.41,4.93c-0.11,0.58-0.66,1.26-1.8,1.26h-2.88
			c-1.14,0-1.69-0.68-1.82-1.32l-1.4-4.88v21.29c0,0.77-0.7,1.47-1.47,1.47h-6.48c-0.77,0-1.47-0.7-1.47-1.47V1.47
			c0-0.78,0.67-1.32,1.32-1.46L179.17,0h6.12c1.15,0,1.69,0.68,1.82,1.32l4.67,16.47l4.68-16.53c0.11-0.58,0.66-1.27,1.8-1.27h6.12
			c0.77,0,1.47,0.7,1.47,1.47v48.96C205.84,51.2,205.14,51.9,204.37,51.9z M197.92,18.44v32l6.45-0.03l-0.03-48.93l-6.09,0.03
			c-0.15,0-0.33,0.02-0.34,0.12l-6.14,21.69l-6.12-21.63c-0.03-0.15-0.21-0.17-0.36-0.17h-6.02c-0.04,0.02-0.08,0.04-0.09,0.06
			l0.02,48.88l6.45-0.03l-0.03-31.97l4.35,15.23c0.03,0.14,0.15,0.18,0.36,0.18h2.88c0.21,0,0.33-0.04,0.34-0.12L197.92,18.44z"/>
		<path class="st0" d="M218.05,51.9h-6.48c-0.77,0-1.47-0.7-1.47-1.47V1.47c0-0.77,0.7-1.47,1.47-1.47h6.48
			c0.77,0,1.47,0.7,1.47,1.47v48.96C219.52,51.2,218.82,51.9,218.05,51.9z M218.02,1.47l-6.45,0.03l0.03,48.93l6.42-0.03V1.47z"/>
		<path class="st0" d="M242.53,51.9h-6.48c-0.77,0-1.47-0.7-1.47-1.47V35.46l-1.38-3.45v18.43c0,0.77-0.7,1.47-1.47,1.47h-6.48
			c-0.77,0-1.47-0.7-1.47-1.47V1.47c0-0.77,0.7-1.47,1.47-1.47h6.48c0.77,0,1.47,0.7,1.47,1.47v12.1l1.38,3.45V1.47
			c0-0.77,0.7-1.47,1.47-1.47h6.48C243.3,0,244,0.7,244,1.47v48.96C244,51.2,243.3,51.9,242.53,51.9z M231.7,24.22l4.38,10.95v15.27
			l6.45-0.03L242.5,1.47l-6.45,0.03l0.03,23.31l-4.38-10.95V1.47l-6.45,0.03l0.03,48.93l6.45-0.03L231.7,24.22z"/>
		<path class="st0" d="M256.21,51.9h-6.48c-0.77,0-1.47-0.7-1.47-1.47V1.47c0-0.77,0.7-1.47,1.47-1.47h6.48
			c0.77,0,1.47,0.7,1.47,1.47v48.96C257.68,51.2,256.98,51.9,256.21,51.9z M256.18,1.47l-6.45,0.03l0.03,48.93l6.42-0.03V1.47z"/>
	</g>
</g>
</svg>
