<svg width="195" height="56" viewBox="0 0 195 56" fill="none" xmlns="http://www.w3.org/2000/svg">
<path d="M6.39985 5.57515C6.39985 6.11156 6.30505 6.58185 6.11544 6.98602C5.92582 7.39019 5.65388 7.70206 5.2996 7.92161C4.94782 8.14116 4.54365 8.25093 4.08708 8.25093C3.63551 8.25093 3.23258 8.14241 2.8783 7.92535C2.52403 7.70829 2.24959 7.39893 2.05499 6.99725C1.86039 6.59307 1.76184 6.12902 1.75934 5.60509V5.33564C1.75934 4.79924 1.8554 4.3277 2.0475 3.92104C2.2421 3.51187 2.5153 3.19876 2.86708 2.98171C3.22135 2.76216 3.62553 2.65238 4.0796 2.65238C4.53367 2.65238 4.9366 2.76216 5.28838 2.98171C5.64265 3.19876 5.91584 3.51187 6.10795 3.92104C6.30255 4.3277 6.39985 4.79799 6.39985 5.3319V5.57515ZM5.26218 5.32816C5.26218 4.75683 5.15989 4.32272 4.95531 4.02582C4.75073 3.72893 4.45882 3.58048 4.0796 3.58048C3.70287 3.58048 3.41221 3.72768 3.20763 4.02208C3.00305 4.31398 2.89951 4.74311 2.89702 5.30945V5.57515C2.89702 6.13152 2.99931 6.56313 3.20389 6.87001C3.40847 7.17688 3.70287 7.33032 4.08708 7.33032C4.46381 7.33032 4.75322 7.18312 4.95531 6.88872C5.15739 6.59183 5.25969 6.16021 5.26218 5.59387V5.32816ZM11.6504 8.17609H10.5277V5.84086H8.33839V8.17609H7.21569V2.72723H8.33839V4.93521H10.5277V2.72723H11.6504V8.17609ZM17.1329 2.72723V8.17609H16.0065V3.63662H14.5544L14.4646 5.56018C14.4272 6.20886 14.3449 6.72031 14.2176 7.09455C14.0904 7.46629 13.9045 7.73948 13.66 7.91412C13.4155 8.08627 13.0812 8.17359 12.6571 8.17609H12.3652V7.27418L12.5523 7.25547C12.8342 7.21805 13.035 7.05588 13.1548 6.76896C13.277 6.47956 13.3544 5.96561 13.3868 5.22712L13.4804 2.72723H17.1329ZM21.257 7.05338H19.2885L18.9143 8.17609H17.7205L19.7488 2.72723H20.7892L22.8288 8.17609H21.635L21.257 7.05338ZM19.5916 6.14399H20.9538L20.269 4.10441L19.5916 6.14399ZM26.6048 2.72723H27.7312V8.17609H26.6048V4.55724L24.423 8.17609H23.3003V2.72723H24.423V6.35356L26.6048 2.72723ZM26.8218 1.29391C26.8218 1.62573 26.7021 1.89393 26.4626 2.09851C26.2256 2.30309 25.9137 2.40539 25.527 2.40539C25.1403 2.40539 24.8272 2.30434 24.5877 2.10225C24.3507 1.90017 24.2321 1.63072 24.2321 1.29391H24.9993C24.9993 1.45109 25.0455 1.57334 25.1378 1.66066C25.2326 1.74548 25.3623 1.7879 25.527 1.7879C25.6892 1.7879 25.8164 1.74548 25.9087 1.66066C26.001 1.57334 26.0472 1.45109 26.0472 1.29391H26.8218ZM33.1389 8.17609H32.0162V5.84086H29.827V8.17609H28.7043V2.72723H29.827V4.93521H32.0162V2.72723H33.1389V8.17609ZM39.2315 3.21373H39.2988C39.7255 3.21373 40.1109 3.30854 40.4552 3.49815C40.802 3.68527 41.0715 3.95222 41.2636 4.29901C41.4557 4.6458 41.5517 5.04 41.5517 5.4816C41.5517 6.13526 41.3422 6.66917 40.923 7.08332C40.5064 7.49747 39.9425 7.70455 39.2315 7.70455V8.40063H38.1499V7.70455H38.0788C37.6472 7.70455 37.258 7.61224 36.9112 7.42762C36.5644 7.2405 36.295 6.97853 36.1029 6.64172C35.9133 6.30491 35.8185 5.9207 35.8185 5.48908C35.8185 5.05247 35.9133 4.66202 36.1029 4.31773C36.2925 3.97343 36.5582 3.70523 36.9 3.51312C37.2418 3.31852 37.6235 3.21872 38.0452 3.21373H38.1499V2.50269H39.2315V3.21373ZM38.0788 4.14558C37.7071 4.14558 37.4139 4.26284 37.1994 4.49736C36.9873 4.73188 36.8813 5.06245 36.8813 5.48908C36.8813 5.88826 36.9873 6.20262 37.1994 6.43215C37.4114 6.65919 37.7096 6.77271 38.0938 6.77271H38.1499V4.14558H38.0788ZM39.2315 4.14558V6.77271H39.3063C39.6731 6.77271 39.9612 6.65794 40.1708 6.42841C40.3829 6.19638 40.4889 5.88078 40.4889 5.4816C40.4889 5.06495 40.3854 4.73812 40.1783 4.5011C39.9712 4.26408 39.6743 4.14558 39.2876 4.14558H39.2315ZM45.5673 5.81466H43.4117V7.27418H45.9415V8.17609H42.289V2.72723H45.934V3.63662H43.4117V4.93521H45.5673V5.81466ZM50.8777 6.36105C50.8353 6.94735 50.6182 7.40891 50.2265 7.74572C49.8373 8.08253 49.3233 8.25093 48.6846 8.25093C47.9861 8.25093 47.436 8.01641 47.0343 7.54737C46.6351 7.07584 46.4355 6.42966 46.4355 5.60884V5.27577C46.4355 4.75184 46.5278 4.29028 46.7124 3.8911C46.8971 3.49191 47.1603 3.18629 47.5021 2.97422C47.8464 2.75966 48.2455 2.65238 48.6996 2.65238C49.3283 2.65238 49.8348 2.82079 50.219 3.1576C50.6032 3.49441 50.8253 3.96719 50.8851 4.57595H49.7624C49.735 4.22417 49.6365 3.96969 49.4668 3.81251C49.2996 3.65283 49.0439 3.573 48.6996 3.573C48.3254 3.573 48.0447 3.70772 47.8576 3.97717C47.673 4.24413 47.5782 4.65953 47.5732 5.22337V5.63503C47.5732 6.22383 47.6617 6.6542 47.8389 6.92614C48.0185 7.19809 48.3004 7.33406 48.6846 7.33406C49.0314 7.33406 49.2897 7.25547 49.4593 7.09829C49.6315 6.93862 49.73 6.69287 49.755 6.36105H50.8777ZM55.6043 3.63662H53.9352V8.17609H52.8125V3.63662H51.1658V2.72723H55.6043V3.63662ZM59.515 2.72723H60.6415V8.17609H59.515V4.55724L57.3332 8.17609H56.2105V2.72723H57.3332V6.35356L59.515 2.72723ZM61.6145 8.17609V2.72723H63.5231C64.1842 2.72723 64.6857 2.85447 65.0275 3.10895C65.3693 3.36093 65.5402 3.73142 65.5402 4.22042C65.5402 4.48738 65.4716 4.72315 65.3344 4.92773C65.1971 5.12981 65.0063 5.27826 64.7618 5.37307C65.0412 5.44292 65.2608 5.58389 65.4204 5.79595C65.5826 6.00802 65.6637 6.26749 65.6637 6.57436C65.6637 7.09829 65.4965 7.49498 65.1622 7.76443C64.8279 8.03388 64.3514 8.1711 63.7326 8.17609H61.6145ZM62.7372 5.80344V7.27418H63.6989C63.9634 7.27418 64.1692 7.21181 64.3164 7.08706C64.4661 6.95982 64.541 6.78518 64.541 6.56313C64.541 6.06415 64.2828 5.81092 63.7663 5.80344H62.7372ZM62.7372 5.01006H63.568C64.1343 5.00008 64.4175 4.77429 64.4175 4.33269C64.4175 4.0857 64.3451 3.90856 64.2004 3.80128C64.0582 3.69151 63.8324 3.63662 63.5231 3.63662H62.7372V5.01006ZM69.5857 7.05338H67.6172L67.243 8.17609H66.0491L68.0775 2.72723H69.1179L71.1575 8.17609H69.9636L69.5857 7.05338ZM67.9203 6.14399H69.2825L68.5977 4.10441L67.9203 6.14399ZM76.1647 2.72723V8.17609H75.0383V3.63662H73.5862L73.4964 5.56018C73.459 6.20886 73.3767 6.72031 73.2494 7.09455C73.1222 7.46629 72.9363 7.73948 72.6918 7.91412C72.4473 8.08627 72.113 8.17359 71.6889 8.17609H71.397V7.27418L71.5841 7.25547C71.866 7.21805 72.0668 7.05588 72.1866 6.76896C72.3088 6.47956 72.3862 5.96561 72.4186 5.22712L72.5122 2.72723H76.1647ZM78.2679 4.69196H79.1436C79.7848 4.69196 80.2925 4.84789 80.6668 5.15975C81.0435 5.46912 81.2319 5.88702 81.2319 6.41344C81.2319 6.94236 81.0447 7.36774 80.6705 7.68958C80.2988 8.00893 79.8035 8.1711 79.1848 8.17609H77.1377V2.72723H78.2679V4.69196ZM78.2679 5.59761V7.27418H79.1623C79.4493 7.27418 79.6775 7.19559 79.8472 7.03841C80.0193 6.88123 80.1054 6.67041 80.1054 6.40596C80.1054 6.15896 80.0231 5.96436 79.8584 5.82215C79.6962 5.67745 79.473 5.6026 79.1885 5.59761H78.2679ZM88.2862 8.17609H87.1635V5.84086H84.9742V8.17609H83.8515V2.72723H84.9742V4.93521H87.1635V2.72723H88.2862V8.17609ZM92.414 7.05338H90.4455L90.0713 8.17609H88.8775L90.9058 2.72723H91.9462L93.9858 8.17609H92.792L92.414 7.05338ZM90.7486 6.14399H92.1109L91.426 4.10441L90.7486 6.14399ZM98.6899 6.36105C98.6475 6.94735 98.4304 7.40891 98.0387 7.74572C97.6495 8.08253 97.1356 8.25093 96.4969 8.25093C95.7983 8.25093 95.2482 8.01641 94.8465 7.54737C94.4473 7.07584 94.2477 6.42966 94.2477 5.60884V5.27577C94.2477 4.75184 94.34 4.29028 94.5247 3.8911C94.7093 3.49191 94.9725 3.18629 95.3143 2.97422C95.6586 2.75966 96.0578 2.65238 96.5119 2.65238C97.1406 2.65238 97.647 2.82079 98.0313 3.1576C98.4155 3.49441 98.6375 3.96719 98.6974 4.57595H97.5747C97.5472 4.22417 97.4487 3.96969 97.279 3.81251C97.1119 3.65283 96.8562 3.573 96.5119 3.573C96.1376 3.573 95.8569 3.70772 95.6698 3.97717C95.4852 4.24413 95.3904 4.65953 95.3854 5.22337V5.63503C95.3854 6.22383 95.474 6.6542 95.6511 6.92614C95.8308 7.19809 96.1127 7.33406 96.4969 7.33406C96.8437 7.33406 97.1019 7.25547 97.2716 7.09829C97.4437 6.93862 97.5423 6.69287 97.5672 6.36105H98.6899ZM103.416 3.63662H101.747V8.17609H100.625V3.63662H98.9781V2.72723H103.416V3.63662ZM108.431 5.57515C108.431 6.11156 108.336 6.58185 108.147 6.98602C107.957 7.39019 107.685 7.70206 107.331 7.92161C106.979 8.14116 106.575 8.25093 106.118 8.25093C105.667 8.25093 105.264 8.14241 104.91 7.92535C104.555 7.70829 104.281 7.39893 104.086 6.99725C103.892 6.59307 103.793 6.12902 103.791 5.60509V5.33564C103.791 4.79924 103.887 4.3277 104.079 3.92104C104.273 3.51187 104.547 3.19876 104.898 2.98171C105.253 2.76216 105.657 2.65238 106.111 2.65238C106.565 2.65238 106.968 2.76216 107.32 2.98171C107.674 3.19876 107.947 3.51187 108.139 3.92104C108.334 4.3277 108.431 4.79799 108.431 5.3319V5.57515ZM107.294 5.32816C107.294 4.75683 107.191 4.32272 106.987 4.02582C106.782 3.72893 106.49 3.58048 106.111 3.58048C105.734 3.58048 105.444 3.72768 105.239 4.02208C105.034 4.31398 104.931 4.74311 104.928 5.30945V5.57515C104.928 6.13152 105.031 6.56313 105.235 6.87001C105.44 7.17688 105.734 7.33032 106.118 7.33032C106.495 7.33032 106.785 7.18312 106.987 6.88872C107.189 6.59183 107.291 6.16021 107.294 5.59387V5.32816ZM113.558 2.72723V8.17609H112.432V3.63662H110.98L110.89 5.56018C110.853 6.20886 110.77 6.72031 110.643 7.09455C110.516 7.46629 110.33 7.73948 110.085 7.91412C109.841 8.08627 109.507 8.17359 109.082 8.17609H108.791V7.27418L108.978 7.25547C109.26 7.21805 109.46 7.05588 109.58 6.76896C109.702 6.47956 109.78 5.96561 109.812 5.22712L109.906 2.72723H113.558ZM115.661 4.69196H116.537C117.178 4.69196 117.686 4.84789 118.06 5.15975C118.437 5.46912 118.625 5.88702 118.625 6.41344C118.625 6.94236 118.438 7.36774 118.064 7.68958C117.692 8.00893 117.197 8.1711 116.578 8.17609H114.531V2.72723H115.661V4.69196ZM115.661 5.59761V7.27418H116.556C116.843 7.27418 117.071 7.19559 117.241 7.03841C117.413 6.88123 117.499 6.67041 117.499 6.40596C117.499 6.15896 117.417 5.96436 117.252 5.82215C117.09 5.67745 116.866 5.6026 116.582 5.59761H115.661ZM123.771 8.17609H122.648V5.84086H120.459V8.17609H119.336V2.72723H120.459V4.93521H122.648V2.72723H123.771V8.17609ZM125.897 4.69196H126.772C127.414 4.69196 127.921 4.84789 128.296 5.15975C128.672 5.46912 128.861 5.88702 128.861 6.41344C128.861 6.94236 128.674 7.36774 128.299 7.68958C127.928 8.00893 127.432 8.1711 126.814 8.17609H124.767V2.72723H125.897V4.69196ZM130.451 8.17609H129.329V2.72723H130.451V8.17609ZM125.897 5.59761V7.27418H126.791C127.078 7.27418 127.306 7.19559 127.476 7.03841C127.648 6.88123 127.734 6.67041 127.734 6.40596C127.734 6.15896 127.652 5.96436 127.487 5.82215C127.325 5.67745 127.102 5.6026 126.817 5.59761H125.897ZM133.456 4.60589L134.478 2.72723H135.769L134.182 5.4292L135.81 8.17609H134.504L133.456 6.26749L132.408 8.17609H131.102L132.73 5.4292L131.144 2.72723H132.435L133.456 4.60589ZM139.41 6.25626V8.17609H138.288V2.72723H140.413C140.823 2.72723 141.182 2.80207 141.491 2.95177C141.803 3.10146 142.043 3.31478 142.21 3.59171C142.377 3.86615 142.46 4.17926 142.46 4.53104C142.46 5.06495 142.277 5.48659 141.91 5.79595C141.546 6.10283 141.041 6.25626 140.395 6.25626H139.41ZM139.41 5.34687H140.413C140.71 5.34687 140.936 5.27701 141.091 5.1373C141.248 4.99759 141.326 4.79799 141.326 4.53852C141.326 4.27157 141.248 4.05576 141.091 3.8911C140.934 3.72643 140.716 3.64161 140.44 3.63662H139.41V5.34687ZM147.711 5.57515C147.711 6.11156 147.616 6.58185 147.427 6.98602C147.237 7.39019 146.965 7.70206 146.611 7.92161C146.259 8.14116 145.855 8.25093 145.398 8.25093C144.947 8.25093 144.544 8.14241 144.189 7.92535C143.835 7.70829 143.561 7.39893 143.366 6.99725C143.171 6.59307 143.073 6.12902 143.07 5.60509V5.33564C143.07 4.79924 143.166 4.3277 143.359 3.92104C143.553 3.51187 143.826 3.19876 144.178 2.98171C144.532 2.76216 144.937 2.65238 145.391 2.65238C145.845 2.65238 146.248 2.76216 146.599 2.98171C146.954 3.19876 147.227 3.51187 147.419 3.92104C147.614 4.3277 147.711 4.79799 147.711 5.3319V5.57515ZM146.573 5.32816C146.573 4.75683 146.471 4.32272 146.266 4.02582C146.062 3.72893 145.77 3.58048 145.391 3.58048C145.014 3.58048 144.723 3.72768 144.519 4.02208C144.314 4.31398 144.211 4.74311 144.208 5.30945V5.57515C144.208 6.13152 144.31 6.56313 144.515 6.87001C144.72 7.17688 145.014 7.33032 145.398 7.33032C145.775 7.33032 146.064 7.18312 146.266 6.88872C146.468 6.59183 146.571 6.16021 146.573 5.59387V5.32816ZM152.838 2.72723V8.17609H151.712V3.63662H150.259L150.17 5.56018C150.132 6.20886 150.05 6.72031 149.923 7.09455C149.795 7.46629 149.61 7.73948 149.365 7.91412C149.121 8.08627 148.786 8.17359 148.362 8.17609H148.07V7.27418L148.257 7.25547C148.539 7.21805 148.74 7.05588 148.86 6.76896C148.982 6.47956 149.059 5.96561 149.092 5.22712L149.185 2.72723H152.838ZM157.097 5.81466H154.941V7.27418H157.471V8.17609H153.818V2.72723H157.463V3.63662H154.941V4.93521H157.097V5.81466ZM158.13 8.17609V2.72723H160.038C160.699 2.72723 161.201 2.85447 161.543 3.10895C161.884 3.36093 162.055 3.73142 162.055 4.22042C162.055 4.48738 161.987 4.72315 161.85 4.92773C161.712 5.12981 161.521 5.27826 161.277 5.37307C161.556 5.44292 161.776 5.58389 161.936 5.79595C162.098 6.00802 162.179 6.26749 162.179 6.57436C162.179 7.09829 162.012 7.49498 161.677 7.76443C161.343 8.03388 160.867 8.1711 160.248 8.17609H158.13ZM159.252 5.80344V7.27418H160.214C160.479 7.27418 160.684 7.21181 160.832 7.08706C160.981 6.95982 161.056 6.78518 161.056 6.56313C161.056 6.06415 160.798 5.81092 160.281 5.80344H159.252ZM159.252 5.01006H160.083C160.649 5.00008 160.933 4.77429 160.933 4.33269C160.933 4.0857 160.86 3.90856 160.716 3.80128C160.573 3.69151 160.348 3.63662 160.038 3.63662H159.252V5.01006ZM164.166 4.69196H165.042C165.683 4.69196 166.191 4.84789 166.565 5.15975C166.942 5.46912 167.13 5.88702 167.13 6.41344C167.13 6.94236 166.943 7.36774 166.569 7.68958C166.197 8.00893 165.702 8.1711 165.083 8.17609H163.036V2.72723H164.166V4.69196ZM168.72 8.17609H167.598V2.72723H168.72V8.17609ZM164.166 5.59761V7.27418H165.06C165.347 7.27418 165.576 7.19559 165.745 7.03841C165.917 6.88123 166.004 6.67041 166.004 6.40596C166.004 6.15896 165.921 5.96436 165.757 5.82215C165.594 5.67745 165.371 5.6026 165.087 5.59761H164.166ZM171.726 4.60589L172.747 2.72723H174.038L172.452 5.4292L174.08 8.17609H172.773L171.726 6.26749L170.678 8.17609H169.372L171 5.4292L169.413 2.72723H170.704L171.726 4.60589ZM179.824 2.72723H180.95V8.17609H179.824V4.55724L177.642 8.17609H176.52V2.72723H177.642V6.35356L179.824 2.72723ZM185.497 3.63662H183.054V8.17609H181.931V2.72723H185.497V3.63662ZM187.32 6.25626V8.17609H186.197V2.72723H188.323C188.732 2.72723 189.091 2.80207 189.401 2.95177C189.713 3.10146 189.952 3.31478 190.119 3.59171C190.286 3.86615 190.37 4.17926 190.37 4.53104C190.37 5.06495 190.187 5.48659 189.82 5.79595C189.456 6.10283 188.95 6.25626 188.304 6.25626H187.32ZM187.32 5.34687H188.323C188.62 5.34687 188.846 5.27701 189 5.1373C189.157 4.99759 189.236 4.79799 189.236 4.53852C189.236 4.27157 189.157 4.05576 189 3.8911C188.843 3.72643 188.626 3.64161 188.349 3.63662H187.32V5.34687Z" fill="white"/>
<path d="M9.30889 35.5432C9.56482 35.5432 9.82074 35.7991 9.82074 36.055V51.4103C9.82074 51.6663 10.0767 51.9222 10.3326 51.9222H14.9392C15.1951 51.9222 15.451 51.6663 15.451 51.4103V35.5432C15.451 34.0076 14.4273 32.984 12.8918 32.984V32.728C14.4273 32.728 15.451 31.7043 15.451 30.1688V16.6049C15.451 16.349 15.1951 16.0931 14.9392 16.0931H10.3326C10.0767 16.0931 9.82074 16.349 9.82074 16.6049V29.9129C9.82074 30.1688 9.56482 30.4247 9.30889 30.4247H7.77336V16.6049C7.77336 16.349 7.51744 16.0931 7.26152 16.0931H2.65492C2.399 16.0931 2.14308 16.349 2.14308 16.6049V51.4103C2.14308 51.6663 2.399 51.9222 2.65492 51.9222H7.26152C7.51744 51.9222 7.77336 51.6663 7.77336 51.4103V35.5432H9.30889ZM22.097 16.0931C20.5615 16.0931 19.5378 17.1168 19.5378 18.6523V49.363C19.5378 50.8985 20.5615 51.9222 22.097 51.9222H30.2865C31.822 51.9222 32.8457 50.8985 32.8457 49.363V18.6523C32.8457 17.1168 31.822 16.0931 30.2865 16.0931H22.097ZM27.2154 46.2919C27.2154 46.5478 26.9595 46.8037 26.7036 46.8037H25.6799C25.424 46.8037 25.1681 46.5478 25.1681 46.2919V21.7234C25.1681 21.4675 25.424 21.2115 25.6799 21.2115H26.7036C26.9595 21.2115 27.2154 21.4675 27.2154 21.7234V46.2919ZM36.4206 28.3774C36.4206 29.401 36.8301 29.9129 37.1884 30.4247L44.0983 39.382V46.2919C44.0983 46.5478 43.8424 46.8037 43.5864 46.8037H42.5628C42.3068 46.8037 42.0509 46.5478 42.0509 46.2919V39.6379C42.0509 39.382 41.795 39.1261 41.5391 39.1261H36.9325C36.6765 39.1261 36.4206 39.382 36.4206 39.6379V49.363C36.4206 50.8985 37.4443 51.9222 38.9798 51.9222H47.1693C48.7049 51.9222 49.7286 50.8985 49.7286 49.363V38.6142C49.7286 37.5906 49.3191 37.0787 48.9608 36.5669L42.0509 27.6096V21.7234C42.0509 21.4675 42.3068 21.2115 42.5628 21.2115H43.5864C43.8424 21.2115 44.0983 21.4675 44.0983 21.7234V28.3774C44.0983 28.6333 44.3542 28.8892 44.6101 28.8892H49.2167C49.4726 28.8892 49.7286 28.6333 49.7286 28.3774V18.6523C49.7286 17.1168 48.7049 16.0931 47.1693 16.0931H38.9798C37.4443 16.0931 36.4206 17.1168 36.4206 18.6523V28.3774ZM64.588 16.6049C64.588 16.349 64.3321 16.0931 64.0762 16.0931H52.3038C52.0479 16.0931 51.7919 16.349 51.7919 16.6049V20.6997C51.7919 20.9556 52.0479 21.2115 52.3038 21.2115H55.3748V51.4103C55.3748 51.6663 55.6308 51.9222 55.8867 51.9222H60.4933C60.7492 51.9222 61.0051 51.6663 61.0051 51.4103V21.2115H64.0762C64.3321 21.2115 64.588 20.9556 64.588 20.6997V16.6049ZM72.7535 16.6049C72.7535 16.349 72.4976 16.0931 72.2417 16.0931H67.6351C67.3792 16.0931 67.1233 16.349 67.1233 16.6049V51.4103C67.1233 51.6663 67.3792 51.9222 67.6351 51.9222H72.2417C72.4976 51.9222 72.7535 51.6663 72.7535 51.4103V16.6049ZM85.0598 28.8892H89.6664C89.9223 28.8892 90.1782 28.6333 90.1782 28.3774V18.6523C90.1782 17.1168 89.1545 16.0931 87.619 16.0931H79.4295C77.894 16.0931 76.8703 17.1168 76.8703 18.6523V49.363C76.8703 50.8985 77.894 51.9222 79.4295 51.9222H87.619C89.1545 51.9222 90.1782 50.8985 90.1782 49.363V39.6379C90.1782 39.382 89.9223 39.1261 89.6664 39.1261H85.0598C84.8039 39.1261 84.5479 39.382 84.5479 39.6379V46.2919C84.5479 46.5478 84.292 46.8037 84.0361 46.8037H83.0124C82.7565 46.8037 82.5006 46.5478 82.5006 46.2919V21.7234C82.5006 21.4675 82.7565 21.2115 83.0124 21.2115H84.0361C84.292 21.2115 84.5479 21.4675 84.5479 21.7234V28.3774C84.5479 28.6333 84.8039 28.8892 85.0598 28.8892ZM96.3244 16.0931C94.7888 16.0931 93.7651 17.1168 93.7651 18.6523V49.363C93.7651 50.8985 94.7888 51.9222 96.3244 51.9222H104.514C106.049 51.9222 107.073 50.8985 107.073 49.363V18.6523C107.073 17.1168 106.049 16.0931 104.514 16.0931H96.3244ZM101.443 46.2919C101.443 46.5478 101.187 46.8037 100.931 46.8037H99.9073C99.6513 46.8037 99.3954 46.5478 99.3954 46.2919V21.7234C99.3954 21.4675 99.6513 21.2115 99.9073 21.2115H100.931C101.187 21.2115 101.443 21.4675 101.443 21.7234V46.2919ZM118.837 51.4103C118.837 51.6663 119.093 51.9222 119.349 51.9222H123.956C124.212 51.9222 124.468 51.6663 124.468 51.4103V16.6049C124.468 16.349 124.212 16.0931 123.956 16.0931H119.349C119.093 16.0931 118.837 16.349 118.837 16.6049V30.4247L116.79 25.3063V16.6049C116.79 16.349 116.534 16.0931 116.278 16.0931H111.672C111.416 16.0931 111.16 16.349 111.16 16.6049V51.4103C111.16 51.6663 111.416 51.9222 111.672 51.9222H116.278C116.534 51.9222 116.79 51.6663 116.79 51.4103V35.5432L118.837 40.6616V51.4103ZM136.232 51.4103C136.232 51.6663 136.488 51.9222 136.744 51.9222H141.351C141.607 51.9222 141.862 51.6663 141.862 51.4103V16.6049C141.862 16.349 141.607 16.0931 141.351 16.0931H136.744C136.488 16.0931 136.232 16.349 136.232 16.6049V30.4247L134.185 25.3063V16.6049C134.185 16.349 133.929 16.0931 133.673 16.0931H129.066C128.81 16.0931 128.555 16.349 128.555 16.6049V51.4103C128.555 51.6663 128.81 51.9222 129.066 51.9222H133.673C133.929 51.9222 134.185 51.6663 134.185 51.4103V35.5432L136.232 40.6616V51.4103ZM157.722 30.9366C157.722 30.6807 157.466 30.4247 157.21 30.4247H151.58V21.2115H158.233C158.489 21.2115 158.745 20.9556 158.745 20.6997V16.6049C158.745 16.349 158.489 16.0931 158.233 16.0931H146.461C146.205 16.0931 145.949 16.349 145.949 16.6049V51.4103C145.949 51.6663 146.205 51.9222 146.461 51.9222H158.233C158.489 51.9222 158.745 51.6663 158.745 51.4103V47.3156C158.745 47.0597 158.489 46.8037 158.233 46.8037H151.58V35.5432H157.21C157.466 35.5432 157.722 35.2873 157.722 35.0313V30.9366ZM169.484 28.8892H174.091C174.347 28.8892 174.602 28.6333 174.602 28.3774V18.6523C174.602 17.1168 173.579 16.0931 172.043 16.0931H163.854C162.318 16.0931 161.295 17.1168 161.295 18.6523V49.363C161.295 50.8985 162.318 51.9222 163.854 51.9222H172.043C173.579 51.9222 174.602 50.8985 174.602 49.363V39.6379C174.602 39.382 174.347 39.1261 174.091 39.1261H169.484C169.228 39.1261 168.972 39.382 168.972 39.6379V46.2919C168.972 46.5478 168.716 46.8037 168.46 46.8037H167.437C167.181 46.8037 166.925 46.5478 166.925 46.2919V21.7234C166.925 21.4675 167.181 21.2115 167.437 21.2115H168.46C168.716 21.2115 168.972 21.4675 168.972 21.7234V28.3774C168.972 28.6333 169.228 28.8892 169.484 28.8892ZM189.45 16.6049C189.45 16.349 189.194 16.0931 188.938 16.0931H177.166C176.91 16.0931 176.654 16.349 176.654 16.6049V20.6997C176.654 20.9556 176.91 21.2115 177.166 21.2115H180.237V51.4103C180.237 51.6663 180.493 51.9222 180.749 51.9222H185.355C185.611 51.9222 185.867 51.6663 185.867 51.4103V21.2115H188.938C189.194 21.2115 189.45 20.9556 189.45 20.6997V16.6049Z" fill="#FFB71B"/>
</svg>
