<svg width="440" height="84" viewBox="0 0 440 84" fill="none" xmlns="http://www.w3.org/2000/svg">
<path d="M17.6 45.6C18.2 45.6 18.8 46.2 18.8 46.8V82.8C18.8 83.4 19.4 84 20 84H30.8C31.4 84 32 83.4 32 82.8V45.6C32 42 29.6 39.6 26 39.6V39C29.6 39 32 36.6 32 33V1.19999C32 0.599994 31.4 -5.72205e-06 30.8 -5.72205e-06H20C19.4 -5.72205e-06 18.8 0.599994 18.8 1.19999V32.4C18.8 33 18.2 33.6 17.6 33.6H14V1.19999C14 0.599994 13.4 -5.72205e-06 12.8 -5.72205e-06H2C1.4 -5.72205e-06 0.8 0.599994 0.8 1.19999V82.8C0.8 83.4 1.4 84 2 84H12.8C13.4 84 14 83.4 14 82.8V45.6H17.6ZM47.5813 -5.72205e-06C43.9813 -5.72205e-06 41.5813 2.4 41.5813 6V78C41.5813 81.6 43.9813 84 47.5813 84H66.7812C70.3813 84 72.7813 81.6 72.7813 78V6C72.7813 2.4 70.3813 -5.72205e-06 66.7812 -5.72205e-06H47.5813ZM59.5813 70.8C59.5813 71.4 58.9813 72 58.3813 72H55.9813C55.3813 72 54.7813 71.4 54.7813 70.8V13.2C54.7813 12.6 55.3813 12 55.9813 12H58.3813C58.9813 12 59.5813 12.6 59.5813 13.2V70.8ZM81.1625 28.8C81.1625 31.2 82.1225 32.4 82.9625 33.6L99.1625 54.6V70.8C99.1625 71.4 98.5625 72 97.9625 72H95.5625C94.9625 72 94.3625 71.4 94.3625 70.8V55.2C94.3625 54.6 93.7625 54 93.1625 54H82.3625C81.7625 54 81.1625 54.6 81.1625 55.2V78C81.1625 81.6 83.5625 84 87.1625 84H106.363C109.963 84 112.363 81.6 112.363 78V52.8C112.363 50.4 111.403 49.2 110.563 48L94.3625 27V13.2C94.3625 12.6 94.9625 12 95.5625 12H97.9625C98.5625 12 99.1625 12.6 99.1625 13.2V28.8C99.1625 29.4 99.7625 30 100.363 30H111.163C111.763 30 112.363 29.4 112.363 28.8V6C112.363 2.4 109.963 -5.72205e-06 106.363 -5.72205e-06H87.1625C83.5625 -5.72205e-06 81.1625 2.4 81.1625 6V28.8ZM147.2 1.19999C147.2 0.599994 146.6 -5.72205e-06 146 -5.72205e-06H118.4C117.8 -5.72205e-06 117.2 0.599994 117.2 1.19999V10.8C117.2 11.4 117.8 12 118.4 12H125.6V82.8C125.6 83.4 126.2 84 126.8 84H137.6C138.2 84 138.8 83.4 138.8 82.8V12H146C146.6 12 147.2 11.4 147.2 10.8V1.19999ZM166.344 1.19999C166.344 0.599994 165.744 -5.72205e-06 165.144 -5.72205e-06H154.344C153.744 -5.72205e-06 153.144 0.599994 153.144 1.19999V82.8C153.144 83.4 153.744 84 154.344 84H165.144C165.744 84 166.344 83.4 166.344 82.8V1.19999ZM195.195 30H205.995C206.595 30 207.195 29.4 207.195 28.8V6C207.195 2.4 204.795 -5.72205e-06 201.195 -5.72205e-06H181.995C178.395 -5.72205e-06 175.995 2.4 175.995 6V78C175.995 81.6 178.395 84 181.995 84H201.195C204.795 84 207.195 81.6 207.195 78V55.2C207.195 54.6 206.595 54 205.995 54H195.195C194.595 54 193.995 54.6 193.995 55.2V70.8C193.995 71.4 193.395 72 192.795 72H190.395C189.795 72 189.195 71.4 189.195 70.8V13.2C189.195 12.6 189.795 12 190.395 12H192.795C193.395 12 193.995 12.6 193.995 13.2V28.8C193.995 29.4 194.595 30 195.195 30ZM221.605 -5.72205e-06C218.005 -5.72205e-06 215.605 2.4 215.605 6V78C215.605 81.6 218.005 84 221.605 84H240.805C244.405 84 246.805 81.6 246.805 78V6C246.805 2.4 244.405 -5.72205e-06 240.805 -5.72205e-06H221.605ZM233.605 70.8C233.605 71.4 233.005 72 232.405 72H230.005C229.405 72 228.805 71.4 228.805 70.8V13.2C228.805 12.6 229.405 12 230.005 12H232.405C233.005 12 233.605 12.6 233.605 13.2V70.8ZM274.386 82.8C274.386 83.4 274.986 84 275.586 84H286.386C286.986 84 287.586 83.4 287.586 82.8V1.19999C287.586 0.599994 286.986 -5.72205e-06 286.386 -5.72205e-06H275.586C274.986 -5.72205e-06 274.386 0.599994 274.386 1.19999V33.6L269.586 21.6V1.19999C269.586 0.599994 268.986 -5.72205e-06 268.386 -5.72205e-06H257.586C256.986 -5.72205e-06 256.386 0.599994 256.386 1.19999V82.8C256.386 83.4 256.986 84 257.586 84H268.386C268.986 84 269.586 83.4 269.586 82.8V45.6L274.386 57.6V82.8ZM315.167 82.8C315.167 83.4 315.767 84 316.367 84H327.167C327.767 84 328.367 83.4 328.367 82.8V1.19999C328.367 0.599994 327.767 -5.72205e-06 327.167 -5.72205e-06H316.367C315.767 -5.72205e-06 315.167 0.599994 315.167 1.19999V33.6L310.367 21.6V1.19999C310.367 0.599994 309.767 -5.72205e-06 309.167 -5.72205e-06H298.367C297.767 -5.72205e-06 297.167 0.599994 297.167 1.19999V82.8C297.167 83.4 297.767 84 298.367 84H309.167C309.767 84 310.367 83.4 310.367 82.8V45.6L315.167 57.6V82.8ZM365.548 34.8C365.548 34.2 364.948 33.6 364.348 33.6H351.148V12H366.748C367.348 12 367.948 11.4 367.948 10.8V1.19999C367.948 0.599994 367.348 -5.72205e-06 366.748 -5.72205e-06H339.148C338.548 -5.72205e-06 337.948 0.599994 337.948 1.19999V82.8C337.948 83.4 338.548 84 339.148 84H366.748C367.348 84 367.948 83.4 367.948 82.8V73.2C367.948 72.6 367.348 72 366.748 72H351.148V45.6H364.348C364.948 45.6 365.548 45 365.548 44.4V34.8ZM393.125 30H403.925C404.525 30 405.125 29.4 405.125 28.8V6C405.125 2.4 402.725 -5.72205e-06 399.125 -5.72205e-06H379.925C376.325 -5.72205e-06 373.925 2.4 373.925 6V78C373.925 81.6 376.325 84 379.925 84H399.125C402.725 84 405.125 81.6 405.125 78V55.2C405.125 54.6 404.525 54 403.925 54H393.125C392.525 54 391.925 54.6 391.925 55.2V70.8C391.925 71.4 391.325 72 390.725 72H388.325C387.725 72 387.125 71.4 387.125 70.8V13.2C387.125 12.6 387.725 12 388.325 12H390.725C391.325 12 391.925 12.6 391.925 13.2V28.8C391.925 29.4 392.525 30 393.125 30ZM439.934 1.19999C439.934 0.599994 439.334 -5.72205e-06 438.734 -5.72205e-06H411.134C410.534 -5.72205e-06 409.934 0.599994 409.934 1.19999V10.8C409.934 11.4 410.534 12 411.134 12H418.334V82.8C418.334 83.4 418.934 84 419.534 84H430.334C430.934 84 431.534 83.4 431.534 82.8V12H438.734C439.334 12 439.934 11.4 439.934 10.8V1.19999Z" fill="#1A0C1D"/>
<path d="M26 39.6H25V40.6H26V39.6ZM26 39V38H25V39H26ZM14 33.6H13V34.6H14V33.6ZM14 45.6V44.6H13V45.6H14ZM17.6 46.6C17.5835 46.6 17.5898 46.5963 17.6177 46.6093C17.6458 46.6224 17.6822 46.6464 17.7179 46.6821C17.7536 46.7178 17.7776 46.7542 17.7907 46.7823C17.8037 46.8102 17.8 46.8165 17.8 46.8H19.8C19.8 46.1748 19.4975 45.6332 19.1321 45.2679C18.7668 44.9025 18.2252 44.6 17.6 44.6V46.6ZM17.8 46.8V82.8H19.8V46.8H17.8ZM17.8 82.8C17.8 83.4252 18.1025 83.9668 18.4679 84.3321C18.8332 84.6974 19.3748 85 20 85V83C20.0165 83 20.0102 83.0037 19.9823 82.9907C19.9542 82.9776 19.9178 82.9536 19.8821 82.9179C19.8464 82.8822 19.8224 82.8458 19.8093 82.8177C19.7963 82.7898 19.8 82.7835 19.8 82.8H17.8ZM20 85H30.8V83H20V85ZM30.8 85C31.4252 85 31.9668 84.6974 32.3321 84.3321C32.6975 83.9668 33 83.4252 33 82.8H31C31 82.7835 31.0037 82.7898 30.9907 82.8177C30.9776 82.8458 30.9536 82.8822 30.9179 82.9179C30.8822 82.9536 30.8458 82.9776 30.8177 82.9907C30.7898 83.0037 30.7835 83 30.8 83V85ZM33 82.8V45.6H31V82.8H33ZM33 45.6C33 43.5727 32.3199 41.8057 31.0571 40.5429C29.7943 39.2801 28.0272 38.6 26 38.6V40.6C27.5728 40.6 28.8057 41.1199 29.6429 41.9571C30.4801 42.7943 31 44.0272 31 45.6H33ZM27 39.6V39H25V39.6H27ZM26 40C28.0272 40 29.7943 39.3199 31.0571 38.0571C32.3199 36.7943 33 35.0272 33 33H31C31 34.5728 30.4801 35.8057 29.6429 36.6429C28.8057 37.4801 27.5728 38 26 38V40ZM33 33V1.19999H31V33H33ZM33 1.19999C33 0.574762 32.6975 0.0332336 32.3321 -0.332113C31.9668 -0.697458 31.4252 -1.00001 30.8 -1.00001V0.999994C30.7835 0.999994 30.7898 0.99625 30.8177 1.0093C30.8458 1.02238 30.8822 1.04638 30.9179 1.0821C30.9536 1.11782 30.9776 1.15423 30.9907 1.18225C31.0037 1.21022 31 1.21646 31 1.19999H33ZM30.8 -1.00001H20V0.999994H30.8V-1.00001ZM20 -1.00001C19.3748 -1.00001 18.8332 -0.697458 18.4679 -0.332113C18.1025 0.0332336 17.8 0.574762 17.8 1.19999H19.8C19.8 1.21646 19.7963 1.21022 19.8093 1.18225C19.8224 1.15423 19.8464 1.11782 19.8821 1.0821C19.9178 1.04638 19.9542 1.02238 19.9823 1.0093C20.0102 0.99625 20.0165 0.999994 20 0.999994V-1.00001ZM17.8 1.19999V32.4H19.8V1.19999H17.8ZM17.8 32.4C17.8 32.3835 17.8037 32.3898 17.7907 32.4177C17.7776 32.4458 17.7536 32.4822 17.7179 32.5179C17.6822 32.5536 17.6458 32.5776 17.6177 32.5907C17.5898 32.6037 17.5835 32.6 17.6 32.6V34.6C18.2252 34.6 18.7668 34.2975 19.1321 33.9321C19.4975 33.5668 19.8 33.0252 19.8 32.4H17.8ZM17.6 32.6H14V34.6H17.6V32.6ZM15 33.6V1.19999H13V33.6H15ZM15 1.19999C15 0.574762 14.6975 0.0332336 14.3321 -0.332113C13.9668 -0.69746 13.4252 -1.00001 12.8 -1.00001V0.999994C12.7835 0.999994 12.7898 0.99625 12.8177 1.0093C12.8458 1.02238 12.8822 1.04638 12.9179 1.0821C12.9536 1.11782 12.9776 1.15423 12.9907 1.18225C13.0037 1.21022 13 1.21646 13 1.19999H15ZM12.8 -1.00001H2V0.999994H12.8V-1.00001ZM2 -1.00001C1.37477 -1.00001 0.83324 -0.697458 0.467894 -0.332113C0.102548 0.0332317 -0.2 0.574762 -0.2 1.19999H1.8C1.8 1.21646 1.79626 1.21022 1.80931 1.18225C1.82239 1.15423 1.84639 1.11782 1.88211 1.0821C1.91782 1.04638 1.95424 1.02238 1.98226 1.0093C2.01023 0.99625 2.01646 0.999994 2 0.999994V-1.00001ZM-0.2 1.19999V82.8H1.8V1.19999H-0.2ZM-0.2 82.8C-0.2 83.4252 0.102548 83.9668 0.467894 84.3321C0.833239 84.6975 1.37477 85 2 85V83C2.01646 83 2.01023 83.0037 1.98226 82.9907C1.95424 82.9776 1.91782 82.9536 1.88211 82.9179C1.84639 82.8822 1.82239 82.8458 1.80931 82.8177C1.79626 82.7898 1.8 82.7835 1.8 82.8H-0.2ZM2 85H12.8V83H2V85ZM12.8 85C13.4252 85 13.9668 84.6975 14.3321 84.3321C14.6975 83.9668 15 83.4252 15 82.8H13C13 82.7835 13.0037 82.7898 12.9907 82.8177C12.9776 82.8458 12.9536 82.8822 12.9179 82.9179C12.8822 82.9536 12.8458 82.9776 12.8177 82.9907C12.7898 83.0037 12.7835 83 12.8 83V85ZM15 82.8V45.6H13V82.8H15ZM14 46.6H17.6V44.6H14V46.6ZM47.5812 -1.00001C45.554 -1.00001 43.7869 -0.319891 42.5241 0.94289C41.2614 2.20567 40.5812 3.97275 40.5812 6H42.5812C42.5812 4.42725 43.1011 3.19432 43.9384 2.3571C44.7756 1.51988 46.0085 0.999994 47.5812 0.999994V-1.00001ZM40.5812 6V78H42.5812V6H40.5812ZM40.5812 78C40.5812 80.0272 41.2614 81.7943 42.5241 83.0571C43.7869 84.3199 45.554 85 47.5812 85V83C46.0085 83 44.7756 82.4801 43.9384 81.6429C43.1011 80.8057 42.5812 79.5728 42.5812 78H40.5812ZM47.5812 85H66.7812V83H47.5812V85ZM66.7812 85C68.8085 85 70.5756 84.3199 71.8384 83.0571C73.1011 81.7943 73.7812 80.0272 73.7812 78H71.7812C71.7812 79.5728 71.2614 80.8057 70.4241 81.6429C69.5869 82.4801 68.354 83 66.7812 83V85ZM73.7812 78V6H71.7812V78H73.7812ZM73.7812 6C73.7812 3.97275 73.1011 2.20567 71.8384 0.94289C70.5756 -0.319891 68.8085 -1.00001 66.7812 -1.00001V0.999994C68.354 0.999994 69.5869 1.51988 70.4241 2.3571C71.2614 3.19432 71.7812 4.42725 71.7812 6H73.7812ZM66.7812 -1.00001H47.5812V0.999994H66.7812V-1.00001ZM58.5813 70.8C58.5813 70.7835 58.585 70.7898 58.5719 70.8177C58.5589 70.8458 58.5349 70.8822 58.4991 70.9179C58.4634 70.9536 58.427 70.9776 58.399 70.9907C58.371 71.0037 58.3648 71 58.3813 71V73C59.0065 73 59.548 72.6974 59.9134 72.3321C60.2787 71.9668 60.5813 71.4252 60.5813 70.8H58.5813ZM58.3813 71H55.9813V73H58.3813V71ZM55.9813 71C55.9977 71 55.9915 71.0037 55.9635 70.9907C55.9355 70.9776 55.8991 70.9536 55.8634 70.9179C55.8276 70.8822 55.8036 70.8458 55.7906 70.8177C55.7775 70.7898 55.7812 70.7835 55.7812 70.8H53.7812C53.7812 71.4252 54.0838 71.9668 54.4491 72.3321C54.8145 72.6975 55.356 73 55.9813 73V71ZM55.7812 70.8V13.2H53.7812V70.8H55.7812ZM55.7812 13.2C55.7812 13.2165 55.7775 13.2102 55.7906 13.1823C55.8036 13.1542 55.8276 13.1178 55.8634 13.0821C55.8991 13.0464 55.9355 13.0224 55.9635 13.0093C55.9915 12.9963 55.9977 13 55.9813 13V11C55.356 11 54.8145 11.3025 54.4491 11.6679C54.0838 12.0332 53.7812 12.5748 53.7812 13.2H55.7812ZM55.9813 13H58.3813V11H55.9813V13ZM58.3813 13C58.3648 13 58.371 12.9963 58.399 13.0093C58.427 13.0224 58.4634 13.0464 58.4991 13.0821C58.5349 13.1178 58.5589 13.1542 58.5719 13.1823C58.585 13.2102 58.5813 13.2165 58.5813 13.2H60.5813C60.5813 12.5748 60.2787 12.0332 59.9134 11.6679C59.548 11.3025 59.0065 11 58.3813 11V13ZM58.5813 13.2V70.8H60.5813V13.2H58.5813ZM82.9625 33.6L82.1433 34.1735L82.1566 34.1924L82.1707 34.2108L82.9625 33.6ZM99.1625 54.6H100.162V54.2591L99.9543 53.9892L99.1625 54.6ZM110.562 48L111.382 47.4265L111.368 47.4075L111.354 47.3892L110.562 48ZM94.3625 27H93.3625V27.3409L93.5707 27.6108L94.3625 27ZM80.1625 28.8C80.1625 31.5455 81.3063 32.9777 82.1433 34.1735L83.7817 33.0265C82.9387 31.8223 82.1625 30.8545 82.1625 28.8H80.1625ZM82.1707 34.2108L98.3707 55.2108L99.9543 53.9892L83.7543 32.9892L82.1707 34.2108ZM98.1625 54.6V70.8H100.162V54.6H98.1625ZM98.1625 70.8C98.1625 70.7835 98.1662 70.7898 98.1532 70.8177C98.1401 70.8458 98.1161 70.8822 98.0804 70.9179C98.0447 70.9536 98.0083 70.9776 97.9802 70.9907C97.9523 71.0037 97.946 71 97.9625 71V73C98.5877 73 99.1293 72.6975 99.4946 72.3321C99.86 71.9668 100.162 71.4252 100.162 70.8H98.1625ZM97.9625 71H95.5625V73H97.9625V71ZM95.5625 71C95.579 71 95.5727 71.0037 95.5448 70.9907C95.5167 70.9776 95.4803 70.9536 95.4446 70.9179C95.4089 70.8822 95.3849 70.8458 95.3718 70.8177C95.3588 70.7898 95.3625 70.7835 95.3625 70.8H93.3625C93.3625 71.4252 93.665 71.9668 94.0304 72.3321C94.3957 72.6974 94.9373 73 95.5625 73V71ZM95.3625 70.8V55.2H93.3625V70.8H95.3625ZM95.3625 55.2C95.3625 54.5748 95.06 54.0332 94.6946 53.6679C94.3293 53.3025 93.7877 53 93.1625 53V55C93.146 55 93.1523 54.9963 93.1802 55.0093C93.2083 55.0224 93.2447 55.0464 93.2804 55.0821C93.3161 55.1178 93.3401 55.1542 93.3532 55.1823C93.3662 55.2102 93.3625 55.2165 93.3625 55.2H95.3625ZM93.1625 53H82.3625V55H93.1625V53ZM82.3625 53C81.7373 53 81.1957 53.3025 80.8304 53.6679C80.465 54.0332 80.1625 54.5748 80.1625 55.2H82.1625C82.1625 55.2165 82.1588 55.2102 82.1718 55.1823C82.1849 55.1542 82.2089 55.1178 82.2446 55.0821C82.2803 55.0464 82.3167 55.0224 82.3448 55.0093C82.3727 54.9963 82.379 55 82.3625 55V53ZM80.1625 55.2V78H82.1625V55.2H80.1625ZM80.1625 78C80.1625 80.0272 80.8426 81.7943 82.1054 83.0571C83.3682 84.3199 85.1353 85 87.1625 85V83C85.5897 83 84.3568 82.4801 83.5196 81.6429C82.6824 80.8057 82.1625 79.5728 82.1625 78H80.1625ZM87.1625 85H106.363V83H87.1625V85ZM106.363 85C108.39 85 110.157 84.3199 111.42 83.0571C112.682 81.7943 113.363 80.0272 113.363 78H111.363C111.363 79.5728 110.843 80.8057 110.005 81.6429C109.168 82.4801 107.935 83 106.363 83V85ZM113.363 78V52.8H111.363V78H113.363ZM113.363 52.8C113.363 50.0545 112.219 48.6222 111.382 47.4265L109.743 48.5735C110.586 49.7777 111.363 50.7455 111.363 52.8H113.363ZM111.354 47.3892L95.1543 26.3892L93.5707 27.6108L109.771 48.6108L111.354 47.3892ZM95.3625 27V13.2H93.3625V27H95.3625ZM95.3625 13.2C95.3625 13.2165 95.3588 13.2102 95.3718 13.1823C95.3849 13.1542 95.4089 13.1178 95.4446 13.0821C95.4803 13.0464 95.5167 13.0224 95.5448 13.0093C95.5727 12.9963 95.579 13 95.5625 13V11C94.9373 11 94.3957 11.3025 94.0304 11.6679C93.665 12.0332 93.3625 12.5748 93.3625 13.2H95.3625ZM95.5625 13H97.9625V11H95.5625V13ZM97.9625 13C97.946 13 97.9523 12.9963 97.9802 13.0093C98.0083 13.0224 98.0447 13.0464 98.0804 13.0821C98.1161 13.1178 98.1401 13.1542 98.1532 13.1823C98.1662 13.2102 98.1625 13.2165 98.1625 13.2H100.162C100.162 12.5748 99.86 12.0332 99.4946 11.6679C99.1293 11.3025 98.5877 11 97.9625 11V13ZM98.1625 13.2V28.8H100.162V13.2H98.1625ZM98.1625 28.8C98.1625 29.4252 98.465 29.9668 98.8304 30.3321C99.1957 30.6975 99.7373 31 100.363 31V29C100.379 29 100.373 29.0037 100.345 28.9907C100.317 28.9776 100.28 28.9536 100.245 28.9179C100.209 28.8822 100.185 28.8458 100.172 28.8177C100.159 28.7898 100.162 28.7835 100.162 28.8H98.1625ZM100.363 31H111.162V29H100.363V31ZM111.162 31C111.788 31 112.329 30.6975 112.695 30.3321C113.06 29.9668 113.363 29.4252 113.363 28.8H111.363C111.363 28.7835 111.366 28.7898 111.353 28.8177C111.34 28.8458 111.316 28.8822 111.28 28.9179C111.245 28.9536 111.208 28.9776 111.18 28.9907C111.152 29.0037 111.146 29 111.162 29V31ZM113.363 28.8V6H111.363V28.8H113.363ZM113.363 6C113.363 3.97275 112.682 2.20567 111.42 0.94289C110.157 -0.319891 108.39 -1.00001 106.363 -1.00001V0.999994C107.935 0.999994 109.168 1.51988 110.005 2.3571C110.843 3.19432 111.363 4.42725 111.363 6H113.363ZM106.363 -1.00001H87.1625V0.999994H106.363V-1.00001ZM87.1625 -1.00001C85.1353 -1.00001 83.3682 -0.319891 82.1054 0.94289C80.8426 2.20567 80.1625 3.97275 80.1625 6H82.1625C82.1625 4.42725 82.6824 3.19432 83.5196 2.3571C84.3568 1.51988 85.5898 0.999994 87.1625 0.999994V-1.00001ZM80.1625 6V28.8H82.1625V6H80.1625ZM125.6 12H126.6V11H125.6V12ZM138.8 12V11H137.8V12H138.8ZM148.2 1.19999C148.2 0.574762 147.897 0.0332317 147.532 -0.332113C147.167 -0.69746 146.625 -1.00001 146 -1.00001V0.999994C145.984 0.999994 145.99 0.99625 146.018 1.0093C146.046 1.02238 146.082 1.04638 146.118 1.0821C146.154 1.11782 146.178 1.15423 146.191 1.18225C146.204 1.21022 146.2 1.21646 146.2 1.19999H148.2ZM146 -1.00001H118.4V0.999994H146V-1.00001ZM118.4 -1.00001C117.775 -1.00001 117.233 -0.697458 116.868 -0.332113C116.503 0.0332317 116.2 0.574762 116.2 1.19999H118.2C118.2 1.21646 118.196 1.21022 118.209 1.18225C118.222 1.15423 118.246 1.11782 118.282 1.0821C118.318 1.04638 118.354 1.02238 118.382 1.0093C118.41 0.99625 118.416 0.999994 118.4 0.999994V-1.00001ZM116.2 1.19999V10.8H118.2V1.19999H116.2ZM116.2 10.8C116.2 11.4252 116.503 11.9668 116.868 12.3321C117.233 12.6974 117.775 13 118.4 13V11C118.416 11 118.41 11.0037 118.382 10.9907C118.354 10.9776 118.318 10.9536 118.282 10.9179C118.246 10.8822 118.222 10.8458 118.209 10.8177C118.196 10.7898 118.2 10.7835 118.2 10.8H116.2ZM118.4 13H125.6V11H118.4V13ZM124.6 12V82.8H126.6V12H124.6ZM124.6 82.8C124.6 83.4252 124.903 83.9668 125.268 84.3321C125.633 84.6975 126.175 85 126.8 85V83C126.816 83 126.81 83.0037 126.782 82.9907C126.754 82.9776 126.718 82.9536 126.682 82.9179C126.646 82.8822 126.622 82.8458 126.609 82.8177C126.596 82.7898 126.6 82.7835 126.6 82.8H124.6ZM126.8 85H137.6V83H126.8V85ZM137.6 85C138.225 85 138.767 84.6975 139.132 84.3321C139.497 83.9668 139.8 83.4252 139.8 82.8H137.8C137.8 82.7835 137.804 82.7898 137.791 82.8177C137.778 82.8458 137.754 82.8822 137.718 82.9179C137.682 82.9536 137.646 82.9776 137.618 82.9907C137.59 83.0037 137.584 83 137.6 83V85ZM139.8 82.8V12H137.8V82.8H139.8ZM138.8 13H146V11H138.8V13ZM146 13C146.625 13 147.167 12.6975 147.532 12.3321C147.897 11.9668 148.2 11.4252 148.2 10.8H146.2C146.2 10.7835 146.204 10.7898 146.191 10.8177C146.178 10.8458 146.154 10.8822 146.118 10.9179C146.082 10.9536 146.046 10.9776 146.018 10.9907C145.99 11.0037 145.984 11 146 11V13ZM148.2 10.8V1.19999H146.2V10.8H148.2ZM167.344 1.19999C167.344 0.574762 167.041 0.0332336 166.676 -0.332113C166.311 -0.69746 165.769 -1.00001 165.144 -1.00001V0.999994C165.127 0.999994 165.134 0.99625 165.161 1.0093C165.19 1.02238 165.226 1.04638 165.262 1.0821C165.297 1.11782 165.321 1.15423 165.334 1.18225C165.347 1.21022 165.344 1.21646 165.344 1.19999H167.344ZM165.144 -1.00001H154.344V0.999994H165.144V-1.00001ZM154.344 -1.00001C153.719 -1.00001 153.177 -0.697458 152.812 -0.332113C152.446 0.0332317 152.144 0.574762 152.144 1.19999H154.144C154.144 1.21646 154.14 1.21022 154.153 1.18225C154.166 1.15423 154.19 1.11782 154.226 1.0821C154.262 1.04638 154.298 1.02238 154.326 1.0093C154.354 0.99625 154.36 0.999994 154.344 0.999994V-1.00001ZM152.144 1.19999V82.8H154.144V1.19999H152.144ZM152.144 82.8C152.144 83.4252 152.446 83.9668 152.812 84.3321C153.177 84.6975 153.719 85 154.344 85V83C154.36 83 154.354 83.0037 154.326 82.9907C154.298 82.9776 154.262 82.9536 154.226 82.9179C154.19 82.8822 154.166 82.8458 154.153 82.8177C154.14 82.7898 154.144 82.7835 154.144 82.8H152.144ZM154.344 85H165.144V83H154.344V85ZM165.144 85C165.769 85 166.311 84.6975 166.676 84.3321C167.041 83.9668 167.344 83.4252 167.344 82.8H165.344C165.344 82.7835 165.347 82.7898 165.334 82.8177C165.321 82.8458 165.297 82.8822 165.262 82.9179C165.226 82.9536 165.19 82.9776 165.161 82.9907C165.134 83.0037 165.127 83 165.144 83V85ZM167.344 82.8V1.19999H165.344V82.8H167.344ZM195.195 31H205.995V29H195.195V31ZM205.995 31C206.621 31 207.162 30.6975 207.527 30.3321C207.893 29.9668 208.195 29.4252 208.195 28.8H206.195C206.195 28.7835 206.199 28.7898 206.186 28.8177C206.173 28.8458 206.149 28.8822 206.113 28.9179C206.077 28.9536 206.041 28.9776 206.013 28.9907C205.985 29.0037 205.979 29 205.995 29V31ZM208.195 28.8V6H206.195V28.8H208.195ZM208.195 6C208.195 3.97275 207.515 2.20567 206.252 0.94289C204.99 -0.319891 203.223 -1.00001 201.195 -1.00001V0.999994C202.768 0.999994 204.001 1.51988 204.838 2.3571C205.675 3.19432 206.195 4.42725 206.195 6H208.195ZM201.195 -1.00001H181.995V0.999994H201.195V-1.00001ZM181.995 -1.00001C179.968 -1.00001 178.201 -0.319891 176.938 0.94289C175.675 2.20567 174.995 3.97275 174.995 6H176.995C176.995 4.42725 177.515 3.19432 178.352 2.3571C179.19 1.51988 180.423 0.999994 181.995 0.999994V-1.00001ZM174.995 6V78H176.995V6H174.995ZM174.995 78C174.995 80.0272 175.675 81.7943 176.938 83.0571C178.201 84.3199 179.968 85 181.995 85V83C180.423 83 179.19 82.4801 178.352 81.6429C177.515 80.8057 176.995 79.5728 176.995 78H174.995ZM181.995 85H201.195V83H181.995V85ZM201.195 85C203.223 85 204.99 84.3199 206.252 83.0571C207.515 81.7943 208.195 80.0272 208.195 78H206.195C206.195 79.5728 205.675 80.8057 204.838 81.6429C204.001 82.4801 202.768 83 201.195 83V85ZM208.195 78V55.2H206.195V78H208.195ZM208.195 55.2C208.195 54.5748 207.893 54.0332 207.527 53.6679C207.162 53.3025 206.621 53 205.995 53V55C205.979 55 205.985 54.9963 206.013 55.0093C206.041 55.0224 206.077 55.0464 206.113 55.0821C206.149 55.1178 206.173 55.1542 206.186 55.1823C206.199 55.2102 206.195 55.2165 206.195 55.2H208.195ZM205.995 53H195.195V55H205.995V53ZM195.195 53C194.57 53 194.029 53.3025 193.663 53.6679C193.298 54.0332 192.995 54.5748 192.995 55.2H194.995C194.995 55.2165 194.992 55.2102 195.005 55.1823C195.018 55.1542 195.042 55.1178 195.077 55.0821C195.113 55.0464 195.15 55.0224 195.178 55.0093C195.206 54.9963 195.212 55 195.195 55V53ZM192.995 55.2V70.8H194.995V55.2H192.995ZM192.995 70.8C192.995 70.7835 192.999 70.7898 192.986 70.8177C192.973 70.8458 192.949 70.8822 192.913 70.9179C192.877 70.9536 192.841 70.9776 192.813 70.9907C192.785 71.0037 192.779 71 192.795 71V73C193.421 73 193.962 72.6974 194.327 72.3321C194.693 71.9668 194.995 71.4252 194.995 70.8H192.995ZM192.795 71H190.395V73H192.795V71ZM190.395 71C190.412 71 190.406 71.0037 190.378 70.9907C190.35 70.9776 190.313 70.9536 190.277 70.9179C190.242 70.8822 190.218 70.8458 190.205 70.8177C190.192 70.7898 190.195 70.7835 190.195 70.8H188.195C188.195 71.4252 188.498 71.9668 188.863 72.3321C189.229 72.6975 189.77 73 190.395 73V71ZM190.195 70.8V13.2H188.195V70.8H190.195ZM190.195 13.2C190.195 13.2165 190.192 13.2102 190.205 13.1823C190.218 13.1542 190.242 13.1178 190.277 13.0821C190.313 13.0464 190.35 13.0224 190.378 13.0093C190.406 12.9963 190.412 13 190.395 13V11C189.77 11 189.229 11.3025 188.863 11.6679C188.498 12.0332 188.195 12.5748 188.195 13.2H190.195ZM190.395 13H192.795V11H190.395V13ZM192.795 13C192.779 13 192.785 12.9963 192.813 13.0093C192.841 13.0224 192.877 13.0464 192.913 13.0821C192.949 13.1178 192.973 13.1542 192.986 13.1823C192.999 13.2102 192.995 13.2165 192.995 13.2H194.995C194.995 12.5748 194.693 12.0332 194.327 11.6679C193.962 11.3025 193.421 11 192.795 11V13ZM192.995 13.2V28.8H194.995V13.2H192.995ZM192.995 28.8C192.995 29.4252 193.298 29.9668 193.663 30.3321C194.029 30.6975 194.57 31 195.195 31V29C195.212 29 195.206 29.0037 195.178 28.9907C195.15 28.9776 195.113 28.9536 195.077 28.9179C195.042 28.8822 195.018 28.8458 195.005 28.8177C194.992 28.7898 194.995 28.7835 194.995 28.8H192.995ZM221.605 -1.00001C219.577 -1.00001 217.81 -0.319891 216.548 0.94289C215.285 2.20567 214.605 3.97275 214.605 6H216.605C216.605 4.42725 217.125 3.19432 217.962 2.3571C218.799 1.51988 220.032 0.999994 221.605 0.999994V-1.00001ZM214.605 6V78H216.605V6H214.605ZM214.605 78C214.605 80.0272 215.285 81.7943 216.548 83.0571C217.81 84.3199 219.577 85 221.605 85V83C220.032 83 218.799 82.4801 217.962 81.6429C217.125 80.8057 216.605 79.5728 216.605 78H214.605ZM221.605 85H240.805V83H221.605V85ZM240.805 85C242.832 85 244.599 84.3199 245.862 83.0571C247.125 81.7943 247.805 80.0272 247.805 78H245.805C245.805 79.5728 245.285 80.8057 244.448 81.6429C243.61 82.4801 242.377 83 240.805 83V85ZM247.805 78V6H245.805V78H247.805ZM247.805 6C247.805 3.97275 247.125 2.20567 245.862 0.94289C244.599 -0.319891 242.832 -1.00001 240.805 -1.00001V0.999994C242.377 0.999994 243.61 1.51988 244.448 2.3571C245.285 3.19432 245.805 4.42725 245.805 6H247.805ZM240.805 -1.00001H221.605V0.999994H240.805V-1.00001ZM232.605 70.8C232.605 70.7835 232.608 70.7898 232.595 70.8177C232.582 70.8458 232.558 70.8822 232.523 70.9179C232.487 70.9536 232.45 70.9776 232.422 70.9907C232.394 71.0037 232.388 71 232.405 71V73C233.03 73 233.571 72.6974 233.937 72.3321C234.302 71.9668 234.605 71.4252 234.605 70.8H232.605ZM232.405 71H230.005V73H232.405V71ZM230.005 71C230.021 71 230.015 71.0037 229.987 70.9907C229.959 70.9776 229.923 70.9536 229.887 70.9179C229.851 70.8822 229.827 70.8458 229.814 70.8177C229.801 70.7898 229.805 70.7835 229.805 70.8H227.805C227.805 71.4252 228.107 71.9668 228.473 72.3321C228.838 72.6975 229.379 73 230.005 73V71ZM229.805 70.8V13.2H227.805V70.8H229.805ZM229.805 13.2C229.805 13.2165 229.801 13.2102 229.814 13.1823C229.827 13.1542 229.851 13.1178 229.887 13.0821C229.923 13.0464 229.959 13.0224 229.987 13.0093C230.015 12.9963 230.021 13 230.005 13V11C229.379 11 228.838 11.3025 228.473 11.6679C228.107 12.0332 227.805 12.5748 227.805 13.2H229.805ZM230.005 13H232.405V11H230.005V13ZM232.405 13C232.388 13 232.394 12.9963 232.422 13.0093C232.45 13.0224 232.487 13.0464 232.523 13.0821C232.558 13.1178 232.582 13.1542 232.595 13.1823C232.608 13.2102 232.605 13.2165 232.605 13.2H234.605C234.605 12.5748 234.302 12.0332 233.937 11.6679C233.571 11.3025 233.03 11 232.405 11V13ZM232.605 13.2V70.8H234.605V13.2H232.605ZM274.386 33.6L273.457 33.9714L275.386 33.6H274.386ZM269.586 21.6H268.586V21.7926L268.657 21.9714L269.586 21.6ZM269.586 45.6L270.514 45.2286L268.586 45.6H269.586ZM274.386 57.6H275.386V57.4074L275.314 57.2286L274.386 57.6ZM273.386 82.8C273.386 83.4252 273.688 83.9668 274.054 84.3321C274.419 84.6974 274.961 85 275.586 85V83C275.602 83 275.596 83.0037 275.568 82.9907C275.54 82.9776 275.504 82.9536 275.468 82.9179C275.432 82.8822 275.408 82.8458 275.395 82.8177C275.382 82.7898 275.386 82.7835 275.386 82.8H273.386ZM275.586 85H286.386V83H275.586V85ZM286.386 85C287.011 85 287.553 84.6974 287.918 84.3321C288.283 83.9668 288.586 83.4252 288.586 82.8H286.586C286.586 82.7835 286.59 82.7898 286.577 82.8177C286.564 82.8458 286.54 82.8822 286.504 82.9179C286.468 82.9536 286.432 82.9776 286.404 82.9907C286.376 83.0037 286.369 83 286.386 83V85ZM288.586 82.8V1.19999H286.586V82.8H288.586ZM288.586 1.19999C288.586 0.574762 288.283 0.0332336 287.918 -0.332113C287.553 -0.697458 287.011 -1.00001 286.386 -1.00001V0.999994C286.369 0.999994 286.376 0.99625 286.404 1.0093C286.432 1.02238 286.468 1.04638 286.504 1.0821C286.54 1.11782 286.564 1.15423 286.577 1.18225C286.59 1.21022 286.586 1.21646 286.586 1.19999H288.586ZM286.386 -1.00001H275.586V0.999994H286.386V-1.00001ZM275.586 -1.00001C274.961 -1.00001 274.419 -0.697458 274.054 -0.332113C273.688 0.0332336 273.386 0.574762 273.386 1.19999H275.386C275.386 1.21646 275.382 1.21022 275.395 1.18225C275.408 1.15423 275.432 1.11782 275.468 1.0821C275.504 1.04638 275.54 1.02238 275.568 1.0093C275.596 0.99625 275.602 0.999994 275.586 0.999994V-1.00001ZM273.386 1.19999V33.6H275.386V1.19999H273.386ZM275.314 33.2286L270.514 21.2286L268.657 21.9714L273.457 33.9714L275.314 33.2286ZM270.586 21.6V1.19999H268.586V21.6H270.586ZM270.586 1.19999C270.586 0.574762 270.283 0.0332336 269.918 -0.332113C269.553 -0.69746 269.011 -1.00001 268.386 -1.00001V0.999994C268.369 0.999994 268.376 0.99625 268.404 1.0093C268.432 1.02238 268.468 1.04638 268.504 1.0821C268.54 1.11782 268.564 1.15423 268.577 1.18225C268.59 1.21022 268.586 1.21646 268.586 1.19999H270.586ZM268.386 -1.00001H257.586V0.999994H268.386V-1.00001ZM257.586 -1.00001C256.961 -1.00001 256.419 -0.697458 256.054 -0.332113C255.688 0.0332317 255.386 0.574762 255.386 1.19999H257.386C257.386 1.21646 257.382 1.21022 257.395 1.18225C257.408 1.15423 257.432 1.11782 257.468 1.0821C257.504 1.04638 257.54 1.02238 257.568 1.0093C257.596 0.99625 257.602 0.999994 257.586 0.999994V-1.00001ZM255.386 1.19999V82.8H257.386V1.19999H255.386ZM255.386 82.8C255.386 83.4252 255.688 83.9668 256.054 84.3321C256.419 84.6975 256.961 85 257.586 85V83C257.602 83 257.596 83.0037 257.568 82.9907C257.54 82.9776 257.504 82.9536 257.468 82.9179C257.432 82.8822 257.408 82.8458 257.395 82.8177C257.382 82.7898 257.386 82.7835 257.386 82.8H255.386ZM257.586 85H268.386V83H257.586V85ZM268.386 85C269.011 85 269.553 84.6975 269.918 84.3321C270.283 83.9668 270.586 83.4252 270.586 82.8H268.586C268.586 82.7835 268.59 82.7898 268.577 82.8177C268.564 82.8458 268.54 82.8822 268.504 82.9179C268.468 82.9536 268.432 82.9776 268.404 82.9907C268.376 83.0037 268.369 83 268.386 83V85ZM270.586 82.8V45.6H268.586V82.8H270.586ZM268.657 45.9714L273.457 57.9714L275.314 57.2286L270.514 45.2286L268.657 45.9714ZM273.386 57.6V82.8H275.386V57.6H273.386ZM315.167 33.6L314.239 33.9714L316.167 33.6H315.167ZM310.367 21.6H309.367V21.7926L309.439 21.9714L310.367 21.6ZM310.367 45.6L311.296 45.2286L309.367 45.6H310.367ZM315.167 57.6H316.167V57.4074L316.096 57.2286L315.167 57.6ZM314.167 82.8C314.167 83.4252 314.47 83.9668 314.835 84.3321C315.2 84.6974 315.742 85 316.367 85V83C316.384 83 316.377 83.0037 316.349 82.9907C316.321 82.9776 316.285 82.9536 316.249 82.9179C316.214 82.8822 316.19 82.8458 316.176 82.8177C316.163 82.7898 316.167 82.7835 316.167 82.8H314.167ZM316.367 85H327.167V83H316.367V85ZM327.167 85C327.792 85 328.334 84.6974 328.699 84.3321C329.065 83.9668 329.367 83.4252 329.367 82.8H327.367C327.367 82.7835 327.371 82.7898 327.358 82.8177C327.345 82.8458 327.321 82.8822 327.285 82.9179C327.249 82.9536 327.213 82.9776 327.185 82.9907C327.157 83.0037 327.151 83 327.167 83V85ZM329.367 82.8V1.19999H327.367V82.8H329.367ZM329.367 1.19999C329.367 0.574762 329.065 0.0332336 328.699 -0.332113C328.334 -0.697458 327.792 -1.00001 327.167 -1.00001V0.999994C327.151 0.999994 327.157 0.99625 327.185 1.0093C327.213 1.02238 327.249 1.04638 327.285 1.0821C327.321 1.11782 327.345 1.15423 327.358 1.18225C327.371 1.21022 327.367 1.21646 327.367 1.19999H329.367ZM327.167 -1.00001H316.367V0.999994H327.167V-1.00001ZM316.367 -1.00001C315.742 -1.00001 315.2 -0.697458 314.835 -0.332113C314.47 0.0332336 314.167 0.574762 314.167 1.19999H316.167C316.167 1.21646 316.163 1.21022 316.176 1.18225C316.19 1.15423 316.214 1.11782 316.249 1.0821C316.285 1.04638 316.321 1.02238 316.349 1.0093C316.377 0.99625 316.384 0.999994 316.367 0.999994V-1.00001ZM314.167 1.19999V33.6H316.167V1.19999H314.167ZM316.096 33.2286L311.296 21.2286L309.439 21.9714L314.239 33.9714L316.096 33.2286ZM311.367 21.6V1.19999H309.367V21.6H311.367ZM311.367 1.19999C311.367 0.574762 311.065 0.0332336 310.699 -0.332113C310.334 -0.69746 309.792 -1.00001 309.167 -1.00001V0.999994C309.151 0.999994 309.157 0.99625 309.185 1.0093C309.213 1.02238 309.249 1.04638 309.285 1.0821C309.321 1.11782 309.345 1.15423 309.358 1.18225C309.371 1.21022 309.367 1.21646 309.367 1.19999H311.367ZM309.167 -1.00001H298.367V0.999994H309.167V-1.00001ZM298.367 -1.00001C297.742 -1.00001 297.2 -0.697458 296.835 -0.332113C296.47 0.0332317 296.167 0.574762 296.167 1.19999H298.167C298.167 1.21646 298.163 1.21022 298.176 1.18225C298.19 1.15423 298.214 1.11782 298.249 1.0821C298.285 1.04638 298.321 1.02238 298.349 1.0093C298.377 0.99625 298.384 0.999994 298.367 0.999994V-1.00001ZM296.167 1.19999V82.8H298.167V1.19999H296.167ZM296.167 82.8C296.167 83.4252 296.47 83.9668 296.835 84.3321C297.2 84.6975 297.742 85 298.367 85V83C298.384 83 298.377 83.0037 298.349 82.9907C298.321 82.9776 298.285 82.9536 298.249 82.9179C298.214 82.8822 298.19 82.8458 298.176 82.8177C298.163 82.7898 298.167 82.7835 298.167 82.8H296.167ZM298.367 85H309.167V83H298.367V85ZM309.167 85C309.792 85 310.334 84.6975 310.699 84.3321C311.065 83.9668 311.367 83.4252 311.367 82.8H309.367C309.367 82.7835 309.371 82.7898 309.358 82.8177C309.345 82.8458 309.321 82.8822 309.285 82.9179C309.249 82.9536 309.213 82.9776 309.185 82.9907C309.157 83.0037 309.151 83 309.167 83V85ZM311.367 82.8V45.6H309.367V82.8H311.367ZM309.439 45.9714L314.239 57.9714L316.096 57.2286L311.296 45.2286L309.439 45.9714ZM314.167 57.6V82.8H316.167V57.6H314.167ZM351.148 33.6H350.148V34.6H351.148V33.6ZM351.148 12V11H350.148V12H351.148ZM351.148 72H350.148V73H351.148V72ZM351.148 45.6V44.6H350.148V45.6H351.148ZM366.548 34.8C366.548 34.1748 366.246 33.6332 365.881 33.2679C365.515 32.9025 364.974 32.6 364.348 32.6V34.6C364.332 34.6 364.338 34.5963 364.366 34.6093C364.394 34.6224 364.431 34.6464 364.466 34.6821C364.502 34.7178 364.526 34.7542 364.539 34.7823C364.552 34.8102 364.548 34.8165 364.548 34.8H366.548ZM364.348 32.6H351.148V34.6H364.348V32.6ZM352.148 33.6V12H350.148V33.6H352.148ZM351.148 13H366.748V11H351.148V13ZM366.748 13C367.374 13 367.915 12.6975 368.281 12.3321C368.646 11.9668 368.948 11.4252 368.948 10.8H366.948C366.948 10.7835 366.952 10.7898 366.939 10.8177C366.926 10.8458 366.902 10.8822 366.866 10.9179C366.831 10.9536 366.794 10.9776 366.766 10.9907C366.738 11.0037 366.732 11 366.748 11V13ZM368.948 10.8V1.19999H366.948V10.8H368.948ZM368.948 1.19999C368.948 0.574762 368.646 0.0332317 368.281 -0.332113C367.915 -0.69746 367.374 -1.00001 366.748 -1.00001V0.999994C366.732 0.999994 366.738 0.99625 366.766 1.0093C366.794 1.02238 366.831 1.04638 366.866 1.0821C366.902 1.11782 366.926 1.15423 366.939 1.18225C366.952 1.21022 366.948 1.21646 366.948 1.19999H368.948ZM366.748 -1.00001H339.148V0.999994H366.748V-1.00001ZM339.148 -1.00001C338.523 -1.00001 337.982 -0.697458 337.616 -0.332113C337.251 0.0332317 336.948 0.574762 336.948 1.19999H338.948C338.948 1.21646 338.945 1.21022 338.958 1.18225C338.971 1.15423 338.995 1.11782 339.031 1.0821C339.066 1.04638 339.103 1.02238 339.131 1.0093C339.159 0.99625 339.165 0.999994 339.148 0.999994V-1.00001ZM336.948 1.19999V82.8H338.948V1.19999H336.948ZM336.948 82.8C336.948 83.4252 337.251 83.9668 337.616 84.3321C337.982 84.6975 338.523 85 339.148 85V83C339.165 83 339.159 83.0037 339.131 82.9907C339.103 82.9776 339.066 82.9536 339.031 82.9179C338.995 82.8822 338.971 82.8458 338.958 82.8177C338.945 82.7898 338.948 82.7835 338.948 82.8H336.948ZM339.148 85H366.748V83H339.148V85ZM366.748 85C367.374 85 367.915 84.6975 368.281 84.3321C368.646 83.9668 368.948 83.4252 368.948 82.8H366.948C366.948 82.7835 366.952 82.7898 366.939 82.8177C366.926 82.8458 366.902 82.8822 366.866 82.9179C366.831 82.9536 366.794 82.9776 366.766 82.9907C366.738 83.0037 366.732 83 366.748 83V85ZM368.948 82.8V73.2H366.948V82.8H368.948ZM368.948 73.2C368.948 72.5748 368.646 72.0332 368.281 71.6679C367.915 71.3025 367.374 71 366.748 71V73C366.732 73 366.738 72.9963 366.766 73.0093C366.794 73.0224 366.831 73.0464 366.866 73.0821C366.902 73.1178 366.926 73.1542 366.939 73.1823C366.952 73.2102 366.948 73.2165 366.948 73.2H368.948ZM366.748 71H351.148V73H366.748V71ZM352.148 72V45.6H350.148V72H352.148ZM351.148 46.6H364.348V44.6H351.148V46.6ZM364.348 46.6C364.974 46.6 365.515 46.2974 365.881 45.9321C366.246 45.5668 366.548 45.0252 366.548 44.4H364.548C364.548 44.3835 364.552 44.3898 364.539 44.4177C364.526 44.4458 364.502 44.4822 364.466 44.5179C364.431 44.5536 364.394 44.5776 364.366 44.5907C364.338 44.6037 364.332 44.6 364.348 44.6V46.6ZM366.548 44.4V34.8H364.548V44.4H366.548ZM393.125 31H403.925V29H393.125V31ZM403.925 31C404.55 31 405.092 30.6975 405.457 30.3321C405.822 29.9668 406.125 29.4252 406.125 28.8H404.125C404.125 28.7835 404.129 28.7898 404.116 28.8177C404.103 28.8458 404.079 28.8822 404.043 28.9179C404.007 28.9536 403.971 28.9776 403.943 28.9907C403.915 29.0037 403.909 29 403.925 29V31ZM406.125 28.8V6H404.125V28.8H406.125ZM406.125 6C406.125 3.97275 405.445 2.20567 404.182 0.94289C402.919 -0.319891 401.152 -1.00001 399.125 -1.00001V0.999994C400.698 0.999994 401.931 1.51988 402.768 2.3571C403.605 3.19432 404.125 4.42725 404.125 6H406.125ZM399.125 -1.00001H379.925V0.999994H399.125V-1.00001ZM379.925 -1.00001C377.898 -1.00001 376.131 -0.319891 374.868 0.94289C373.605 2.20567 372.925 3.97275 372.925 6H374.925C374.925 4.42725 375.445 3.19432 376.282 2.3571C377.119 1.51988 378.352 0.999994 379.925 0.999994V-1.00001ZM372.925 6V78H374.925V6H372.925ZM372.925 78C372.925 80.0272 373.605 81.7943 374.868 83.0571C376.131 84.3199 377.898 85 379.925 85V83C378.352 83 377.119 82.4801 376.282 81.6429C375.445 80.8057 374.925 79.5728 374.925 78H372.925ZM379.925 85H399.125V83H379.925V85ZM399.125 85C401.152 85 402.919 84.3199 404.182 83.0571C405.445 81.7943 406.125 80.0272 406.125 78H404.125C404.125 79.5728 403.605 80.8057 402.768 81.6429C401.931 82.4801 400.698 83 399.125 83V85ZM406.125 78V55.2H404.125V78H406.125ZM406.125 55.2C406.125 54.5748 405.822 54.0332 405.457 53.6679C405.092 53.3025 404.55 53 403.925 53V55C403.909 55 403.915 54.9963 403.943 55.0093C403.971 55.0224 404.007 55.0464 404.043 55.0821C404.079 55.1178 404.103 55.1542 404.116 55.1823C404.129 55.2102 404.125 55.2165 404.125 55.2H406.125ZM403.925 53H393.125V55H403.925V53ZM393.125 53C392.5 53 391.958 53.3025 391.593 53.6679C391.228 54.0332 390.925 54.5748 390.925 55.2H392.925C392.925 55.2165 392.921 55.2102 392.934 55.1823C392.947 55.1542 392.971 55.1178 393.007 55.0821C393.043 55.0464 393.079 55.0224 393.107 55.0093C393.135 54.9963 393.141 55 393.125 55V53ZM390.925 55.2V70.8H392.925V55.2H390.925ZM390.925 70.8C390.925 70.7835 390.929 70.7898 390.916 70.8177C390.903 70.8458 390.879 70.8822 390.843 70.9179C390.807 70.9536 390.771 70.9776 390.743 70.9907C390.715 71.0037 390.709 71 390.725 71V73C391.35 73 391.892 72.6974 392.257 72.3321C392.622 71.9668 392.925 71.4252 392.925 70.8H390.925ZM390.725 71H388.325V73H390.725V71ZM388.325 71C388.341 71 388.335 71.0037 388.307 70.9907C388.279 70.9776 388.243 70.9536 388.207 70.9179C388.171 70.8822 388.147 70.8458 388.134 70.8177C388.121 70.7898 388.125 70.7835 388.125 70.8H386.125C386.125 71.4252 386.428 71.9668 386.793 72.3321C387.158 72.6975 387.7 73 388.325 73V71ZM388.125 70.8V13.2H386.125V70.8H388.125ZM388.125 13.2C388.125 13.2165 388.121 13.2102 388.134 13.1823C388.147 13.1542 388.171 13.1178 388.207 13.0821C388.243 13.0464 388.279 13.0224 388.307 13.0093C388.335 12.9963 388.341 13 388.325 13V11C387.7 11 387.158 11.3025 386.793 11.6679C386.428 12.0332 386.125 12.5748 386.125 13.2H388.125ZM388.325 13H390.725V11H388.325V13ZM390.725 13C390.709 13 390.715 12.9963 390.743 13.0093C390.771 13.0224 390.807 13.0464 390.843 13.0821C390.879 13.1178 390.903 13.1542 390.916 13.1823C390.929 13.2102 390.925 13.2165 390.925 13.2H392.925C392.925 12.5748 392.622 12.0332 392.257 11.6679C391.892 11.3025 391.35 11 390.725 11V13ZM390.925 13.2V28.8H392.925V13.2H390.925ZM390.925 28.8C390.925 29.4252 391.228 29.9668 391.593 30.3321C391.958 30.6975 392.5 31 393.125 31V29C393.141 29 393.135 29.0037 393.107 28.9907C393.079 28.9776 393.043 28.9536 393.007 28.9179C392.971 28.8822 392.947 28.8458 392.934 28.8177C392.921 28.7898 392.925 28.7835 392.925 28.8H390.925ZM418.334 12H419.334V11H418.334V12ZM431.534 12V11H430.534V12H431.534ZM440.934 1.19999C440.934 0.574762 440.632 0.0332317 440.266 -0.332113C439.901 -0.69746 439.36 -1.00001 438.734 -1.00001V0.999994C438.718 0.999994 438.724 0.99625 438.752 1.0093C438.78 1.02238 438.817 1.04638 438.852 1.0821C438.888 1.11782 438.912 1.15423 438.925 1.18225C438.938 1.21022 438.934 1.21646 438.934 1.19999H440.934ZM438.734 -1.00001H411.134V0.999994H438.734V-1.00001ZM411.134 -1.00001C410.509 -1.00001 409.968 -0.697458 409.602 -0.332113C409.237 0.0332317 408.934 0.574762 408.934 1.19999H410.934C410.934 1.21646 410.931 1.21022 410.944 1.18225C410.957 1.15423 410.981 1.11782 411.016 1.0821C411.052 1.04638 411.089 1.02238 411.117 1.0093C411.145 0.99625 411.151 0.999994 411.134 0.999994V-1.00001ZM408.934 1.19999V10.8H410.934V1.19999H408.934ZM408.934 10.8C408.934 11.4252 409.237 11.9668 409.602 12.3321C409.968 12.6974 410.509 13 411.134 13V11C411.151 11 411.145 11.0037 411.117 10.9907C411.089 10.9776 411.052 10.9536 411.016 10.9179C410.981 10.8822 410.957 10.8458 410.944 10.8177C410.931 10.7898 410.934 10.7835 410.934 10.8H408.934ZM411.134 13H418.334V11H411.134V13ZM417.334 12V82.8H419.334V12H417.334ZM417.334 82.8C417.334 83.4252 417.637 83.9668 418.002 84.3321C418.368 84.6975 418.909 85 419.534 85V83C419.551 83 419.545 83.0037 419.517 82.9907C419.489 82.9776 419.452 82.9536 419.416 82.9179C419.381 82.8822 419.357 82.8458 419.344 82.8177C419.331 82.7898 419.334 82.7835 419.334 82.8H417.334ZM419.534 85H430.334V83H419.534V85ZM430.334 85C430.96 85 431.501 84.6975 431.866 84.3321C432.232 83.9668 432.534 83.4252 432.534 82.8H430.534C430.534 82.7835 430.538 82.7898 430.525 82.8177C430.512 82.8458 430.488 82.8822 430.452 82.9179C430.417 82.9536 430.38 82.9776 430.352 82.9907C430.324 83.0037 430.318 83 430.334 83V85ZM432.534 82.8V12H430.534V82.8H432.534ZM431.534 13H438.734V11H431.534V13ZM438.734 13C439.36 13 439.901 12.6975 440.266 12.3321C440.632 11.9668 440.934 11.4252 440.934 10.8H438.934C438.934 10.7835 438.938 10.7898 438.925 10.8177C438.912 10.8458 438.888 10.8822 438.852 10.9179C438.817 10.9536 438.78 10.9776 438.752 10.9907C438.724 11.0037 438.718 11 438.734 11V13ZM440.934 10.8V1.19999H438.934V10.8H440.934Z" fill="#FFB71B"/>
</svg>
